<?xml version="1.0" encoding="utf-8"?>
<!-- Generator: Adobe Illustrator 19.2.1, SVG Export Plug-In . SVG Version: 6.00 Build 0)  -->
<svg version="1.1" id="layer" xmlns="http://www.w3.org/2000/svg" xmlns:xlink="http://www.w3.org/1999/xlink" x="0px" y="0px"
	 viewBox="0 0 652 652" style="enable-background:new 0 0 652 652;" xml:space="preserve">
<style type="text/css">
	.st0{fill:#50B848;}
	.st1{fill:#164722;}
	.st2{fill:#F36F21;}
</style>
<g>
	<path class="st0" d="M305.7,224.1c0,0-37.9-14.2-14.4-51.8L305.7,224.1z"/>
	<path class="st1" d="M291.4,172.4c0,0,37.9,14.2,14.7,51.9L291.4,172.4z"/>
	<path class="st0" d="M274,254.2c0,0-36.1-7.8-19.7-46.8L274,254.2z"/>
	<path class="st1" d="M253.9,207.5c0,0,36.2,7.8,20.2,46.7L253.9,207.5z"/>
	<path class="st0" d="M244.6,246c0,0-28,11.8-35.4-22L244.6,246z"/>
	<path class="st1" d="M209.1,224.2c0,0,28-11.9,35.7,21.7L209.1,224.2z"/>
	<path class="st0" d="M267,192.6c0,0-33.8-12.4-16.3-47L267,192.6z"/>
	<path class="st1" d="M250.8,145.7c0,0,33.8,12.1,16.8,46.8L250.8,145.7z"/>
	<path class="st0" d="M305.1,161.9c0,0-27.8-17.1-5.9-44.6L305.1,161.9z"/>
	<path class="st1" d="M299.6,117.3c0,0,27.5,17.5,5.5,44.7L299.6,117.3z"/>
	<path class="st0" d="M240.3,168.6c0,0-38.1,1.4-34.7-39.4L240.3,168.6z"/>
	<path class="st1" d="M206,128.9c0,0,38.2-0.9,34.3,39.8L206,128.9z"/>
	<path class="st0" d="M278.4,148.2c0,0-37.5-14-17.6-52.2L278.4,148.2z"/>
	<path class="st1" d="M261.3,95.9c0,0,37.3,14.5,17.2,52.6L261.3,95.9z"/>
	<path class="st0" d="M129.9,286.7c0,0-23.1,25.6-47.5-2.3L129.9,286.7z"/>
	<path class="st1" d="M82.4,284c0,0,23.4-25.4,47.6,2.7L82.4,284z"/>
	<path class="st0" d="M192,199.2c0,0-30.9,15-43.1-19.9L192,199.2z"/>
	<path class="st1" d="M149.2,178.9c0,0,31.1-14.8,42.9,20.3L149.2,178.9z"/>
	<path class="st0" d="M201.1,228c0,0-28,20.1-45.9-12.4L201.1,228z"/>
	<path class="st1" d="M155.4,215.2c0,0,28.3-19.8,45.9,12.8L155.4,215.2z"/>
	<path class="st0" d="M94.1,258.1c0,0-26.1,18.8-42.9-11.5L94.1,258.1z"/>
	<path class="st1" d="M51.4,246.1c0,0,26.4-18.4,42.8,11.9L51.4,246.1z"/>
	<path class="st0" d="M102.2,235.6c0,0-32.3,1.5-29.8-33.1L102.2,235.6z"/>
	<path class="st1" d="M72.6,202.4c0,0,32.3-1.3,29.7,33.3L72.6,202.4z"/>
	<path class="st0" d="M510.7,276.9c0,0,25.3,18.2,41.5-11.2L510.7,276.9z"/>
	<path class="st1" d="M552.2,265.4c0,0-25.6-17.9-41.5,11.5L552.2,265.4z"/>
	<path class="st0" d="M430.5,321.8c0,0,30.1-8.6,17.3-39.6L430.5,321.8z"/>
	<path class="st1" d="M447.2,282c0,0-30.1,9-16.7,39.9L447.2,282z"/>
	<path class="st0" d="M219.4,79.8c0,0-15.2,27.6,16.2,40.1L219.4,79.8z"/>
	<path class="st1" d="M235.9,119.7c0,0,14.7-27.7-16.5-40L235.9,119.7z"/>
	<path class="st0" d="M539.1,313.5c0,0,3-31.1-30.6-30.4L539.1,313.5z"/>
	<path class="st1" d="M508.2,283.4c0,0-2.6,31.3,31,30.2L508.2,283.4z"/>
	<path class="st0" d="M598.2,283.4c0,0-23.9-28.5-51.4,0.8L598.2,283.4z"/>
	<path class="st1" d="M547,284.7c0,0,24.3,28.1,51.3-1.3L547,284.7z"/>
	<path class="st0" d="M485.4,337.4c0,0,9.3-29.8-23.8-36.1L485.4,337.4z"/>
	<path class="st1" d="M461.3,301.6c0,0-8.9,30,24.2,36L461.3,301.6z"/>
	<path class="st0" d="M533.7,357.5c0,0,12.8-41-32.7-49.6L533.7,357.5z"/>
	<path class="st1" d="M500.6,308.4c0,0-12.4,41.3,33.1,49.4L500.6,308.4z"/>
	<path class="st0" d="M527.1,240.5c0,0,27.9,10.5,35.6-20.8L527.1,240.5z"/>
	<path class="st1" d="M562.4,219.4c0,0-28.2-10.3-35.6,21.2L562.4,219.4z"/>
	<path class="st0" d="M458.3,260.8c0,0,33.1-6.8,21.5-41.4L458.3,260.8z"/>
	<path class="st1" d="M479.5,219.3c0,0-33.1,7.2-21.3,41.6L479.5,219.3z"/>
	<path class="st0" d="M490.7,250.2c0,0,38.6,2.5,36.3-39.2L490.7,250.2z"/>
	<path class="st1" d="M526.7,210.8c0,0-38.8-2-36,39.5L526.7,210.8z"/>
	<path class="st0" d="M455.3,295.1c0,0,43.4,13.8,53.6-31.3L455.3,295.1z"/>
	<path class="st1" d="M508.6,263.4c0,0-43.6-13.4-53.4,31.7L508.6,263.4z"/>
	<path class="st0" d="M410.9,202c0,0,34.8-8.4,21.3-44.6L410.9,202z"/>
	<path class="st1" d="M432.1,157.4c0,0-35,8.3-21.9,44.5L432.1,157.4z"/>
	<path class="st0" d="M414.9,228.2c0,0,41.8,19.3,57.1-28L414.9,228.2z"/>
	<path class="st1" d="M471.6,199.7c0,0-42.3-18.7-57,28.6L471.6,199.7z"/>
	<path class="st0" d="M446.3,176.6c0,0,29.9,6.1,32.5-26.6L446.3,176.6z"/>
	<path class="st1" d="M478.5,149.8c0,0-30-5.7-32.4,26.9L478.5,149.8z"/>
	<path class="st0" d="M332.3,185c0,0,29-24.3-3.3-50.3L332.3,185z"/>
	<path class="st1" d="M329,134.8c0,0-29.2,24.4,3.1,50.4L329,134.8z"/>
	<path class="st0" d="M349.9,216.8c0,0,32.6-14.9,9.2-48.4L349.9,216.8z"/>
	<path class="st1" d="M359.4,168.4c0,0-32.7,14.7-9.7,48.3L359.4,168.4z"/>
	<path class="st0" d="M374.4,284.6c0,0,39.9,3.6,35.8-42L374.4,284.6z"/>
	<path class="st1" d="M410.4,242.8c0,0-40-3.9-36.2,41.7L410.4,242.8z"/>
	<path class="st0" d="M353.1,149c0,0,26.4-16.7,5.2-42.8L353.1,149z"/>
	<path class="st1" d="M358.3,106.3c0,0-26.6,16.4-5.6,42.7L358.3,106.3z"/>
	<path class="st0" d="M370.8,168.8c0,0,24.2-9.6,11-34.3L370.8,168.8z"/>
	<path class="st1" d="M381.7,134.5c0,0-24.4,9.5-11.3,34.3L381.7,134.5z"/>
	<path class="st0" d="M143.3,223.7c0,0,4-30.9-29.6-31.2L143.3,223.7z"/>
	<path class="st1" d="M113.8,192.5c0,0-4.1,31,29.4,31.5L113.8,192.5z"/>
	<path class="st0" d="M382.4,204.2c0,0,26.5-10.5,12-37.4L382.4,204.2z"/>
	<path class="st1" d="M394.4,166.7c0,0-26.6,10.3-12.4,37.4L394.4,166.7z"/>
	<path class="st0" d="M327.1,123.5c0,0,24.2-29.2-10.1-51.3L327.1,123.5z"/>
	<path class="st1" d="M316.5,72.4c0,0-23.8,29.6,10.5,51.3L316.5,72.4z"/>
	<path class="st0" d="M397.4,152.7c0,0,36.4,0.4,32.1-38.8L397.4,152.7z"/>
	<path class="st1" d="M429.1,113.7c0,0-36.6,0-32,39L429.1,113.7z"/>
	<path class="st0" d="M440.5,155.1c0,0,35.3-6.8,23.7-43.7L440.5,155.1z"/>
	<path class="st1" d="M463.8,111.4c0,0-35.4,7.1-23.4,43.9L463.8,111.4z"/>
	<path class="st0" d="M489.2,205.6c0,0,32.2-6.1,21.7-39.8L489.2,205.6z"/>
	<path class="st1" d="M510.5,165.7c0,0-32.2,6.4-21.3,40L510.5,165.7z"/>
	<path class="st0" d="M397.1,81.7c0,0-33.2,10.6-15.4,43.5L397.1,81.7z"/>
	<path class="st1" d="M381.7,125.6c0,0,33.1-10.5,15.7-43.4L381.7,125.6z"/>
	<path class="st0" d="M88.5,375.5c0,0,3-41.4,46.1-30L88.5,375.5z"/>
	<path class="st1" d="M134.9,345.4c0,0-2.8,41.4-45.9,30.3L134.9,345.4z"/>
	<path class="st0" d="M63.2,320c0,0,36.7-30,68.7,10.3L63.2,320z"/>
	<path class="st1" d="M131.6,329.5c0,0-36.6,30.2-68.7-9.8L131.6,329.5z"/>
	<path class="st0" d="M131.1,305.5c0,0,28.7-12.9,42.2,18.4L131.1,305.5z"/>
	<path class="st1" d="M172.5,323.3c0,0-28.8,13.1-42.4-18.2L172.5,323.3z"/>
	<path class="st0" d="M139.4,332.5c0,0,31.5,0.5,30.5,34.6L139.4,332.5z"/>
	<path class="st1" d="M170.4,366.7c0,0-31.6-0.3-30.8-34.3L170.4,366.7z"/>
	<path class="st0" d="M88.5,375.5c0,0,3-41.4,46.1-30L88.5,375.5z"/>
	<path class="st1" d="M134.9,345.4c0,0-2.8,41.4-45.9,30.3L134.9,345.4z"/>
	<path class="st0" d="M63.2,320c0,0,36.7-30,68.7,10.3L63.2,320z"/>
	<path class="st1" d="M131.6,329.5c0,0-36.6,30.2-68.7-9.8L131.6,329.5z"/>
	<path class="st0" d="M118.6,230.7c0,0,44,7.3,35.3,55L118.6,230.7z"/>
	<path class="st1" d="M154.5,285c0,0-44.1-7.1-35.8-54.8L154.5,285z"/>
	<path class="st0" d="M170.5,241.1c0,0,44.3-10.6,55.1,37.8L170.5,241.1z"/>
	<path class="st1" d="M225.9,277.9c0,0-44.4,10.8-55.5-37.3L225.9,277.9z"/>
	<path class="st0" d="M160.3,122.8c0,0,35.9-3.9,39.4,35.1L160.3,122.8z"/>
	<path class="st1" d="M200,157.2c0,0-35.9,4-39.8-34.9L200,157.2z"/>
	<path class="st0" d="M188.1,174.8c0,0,39.4-20.9,61.3,22.3L188.1,174.8z"/>
	<path class="st1" d="M249.4,196.2c0,0-39.3,21-61.6-21.9L249.4,196.2z"/>
	<path class="st0" d="M131.1,305.5c0,0,28.7-12.9,42.2,18.4L131.1,305.5z"/>
	<path class="st1" d="M172.5,323.3c0,0-28.8,13.1-42.4-18.2L172.5,323.3z"/>
	<path class="st0" d="M139.4,332.5c0,0,31.5,0.5,30.5,34.6L139.4,332.5z"/>
	<path class="st1" d="M170.4,366.7c0,0-31.6-0.3-30.8-34.3L170.4,366.7z"/>
	<path class="st2" d="M348.4,324c-4.4,10.6-3.6,19.9,1.9,20.2c5.3,0.5,13.3-8,17.2-18.6c3.9-10.3,2.9-18.7-2.3-19.2
		C360.1,306,352.6,313.7,348.4,324"/>
	<path class="st2" d="M322.5,247.5c-5.1,8.5-5.9,16.3-1.3,17.4c4.3,1,11.8-5.2,16.7-13.7c4.8-8.2,4.9-15.5,0.9-16.5
		C334.6,233.7,327.4,239.3,322.5,247.5"/>
	<path class="st2" d="M355.5,404.4l-0.1,0.4C355.4,404.7,357.5,395.8,355.5,404.4"/>
	<path class="st2" d="M481,260.1c-69.9,16.1-107.4,71-107.4,71c-70.6,88.9-21.9-41.6-7.3-57c-26.4,20.5-35.9,50.6-35.9,50.6
		c7.8-85.7,80.2-94.1,80.2-94.1c-37.4-0.9-66,30.4-66,30.4c-61,66.2-38.4-28.5-12.4-42.1c-2.3,1.2-50.8,21.9-41.6,95.3h-0.5h0.5
		l-4-4.5c-22.2-35.9-45.5-54.3-46.9-55.4c6.1,11,102.4,138,12.7,71.8c0,0-51.5-35.4-118.7-31.5c0,0,133.3,13.6,155,103.9
		c-0.2,23.8-13.9,41.3-13.9,41.3c-5.7,13.7-26.3,17-33,20.2c6.3,4.5,27.8,0.6,37.5-0.1l35.7,1.3c0.9-0.8,2.5-1.2,4.4-1.3l5.5-14.5
		l0.7-1.9l0.7-1.8l0.7-0.2l0.8-0.2c16.9-4.1,32.3-5.5,32.7-5.6l2.3-0.2l-1,2c-0.1,0.1-3.6,8-8.4,18.6c-0.7,1.7-1.5,3.5-2.3,5.3
		l-0.4,0.9l2.4-0.6c13.6,1.6,44.9,4.8,50.2,1.5c-7.1-3-27.7-5.8-36.1-17c-4.7-14.6-11.8-32.1-9.4-41.4l0.1-0.4
		C373.1,298.6,481,260.1,481,260.1 M289.9,314.3l-1.8,0.2L289.9,314.3z"/>
	<path class="st2" d="M273.1,326.8c5.7-2,3.4-11.2-5-20c-8.1-8.6-18.8-13.7-24.1-11.5c-5.4,2-3.6,10.5,4.1,19
		C256,323.1,267.3,328.9,273.1,326.8"/>
	<path class="st1" d="M365.5,491.6c-3.5-4-8.1-5.9-13.3-5.9c-5.5,0-11.7,2.4-18.6,7.1c8.7-21.7,22.3-51.5,22.5-51.8l0.8-1.5
		l-1.7,0.2c-0.1,0.1-8.4,0.9-25.1,4.9l-0.6,0.2l-1.3,3.4l-35.3,93.7l-11.1,8c-3.4,2-5.6,2.6-7,2.6l-0.8-0.6
		c0.4-1.1,4.1-11.5,4.1-11.5c8-22.7,13.6-37.9,15.9-43.7l3.1-7.5l-23.1,0.1l-0.5,1c-2.7-1.6-5.9-2.6-9.6-2.5c-5.1,0-11.5,3-20.6,9.4
		c-9.4,6.6-17.3,14.2-23.9,22.7c-8.1,10.8-12.1,21.5-12.1,31.9c0,4.8,1.1,9,3.3,12.3c1.9,2.9,5.5,6.3,12.2,6.3
		c8.8,0,17.4-3.2,25.4-9.6c0.6,2.2,1.9,4.1,4.5,5.9c3.4,2.3,5.6,3.4,11,3.4h0.5c4.9,0,7,0,13.1-3.2c5.2-2.7,8.4-6.2,11.3-10.6
		c1.5,3.6,3.4,6.7,5.8,9.1c3.3,3.2,7.3,4.8,12,4.7c13.4-0.1,27.2-6.6,41.3-19.5c15.2-13.8,22.9-28.9,22.9-44.7
		C370.8,500.2,369,495.5,365.5,491.6 M254.8,535.1c-7.3,11.6-14.4,17.5-20.7,17.5l-0.8-0.5c-0.7-1.1-1-2.5-1-4.2
		c0-3.1,1.5-9.5,8.9-22.8c6.7-12,13.3-18.1,19.5-18.1c0.7,0,1.6,0.1,2.7,1.4c1.1,1.1,1.5,2.2,1.5,3.3
		C264.9,515.1,263.2,521.9,254.8,535.1 M334.3,539.2c-9,13.5-13.8,14.5-15.1,14.5c-1.8,0-3.2-0.4-4.3-1.3c-0.6-0.6-1.2-1.3-1.2-3.1
		l0.4-2.4l6.8-18.8c4.9-9.9,7.6-13.9,8.8-15.4c4-4.9,8.7-7.3,14.1-7.3c0.5,1.2,0.8,2.9,0.8,5.2C344.7,519.4,341.2,529,334.3,539.2"
		/>
	<path class="st1" d="M519.8,493.4c-3.1-3.4-7.6-5.1-13.3-5c-4.3,0-8.5,1.6-13,4.9c0.6-1.3,1.3-3.8,1.3-3.8l-24.1,0.1l-18.4,55.4
		c-2.7,2.8-5.8,5.3-7.2,6.1c-2,1.2-7,4.1-11.3,1.9l-1.3-1c0.4-1.3,7-21,7-21c5-15,9.3-26.8,12.6-35.2l2.9-7.4h-1.4l-23,0.1l-1.4,3.4
		c-4.3,11.5-7.8,20.2-10.8,26.4c-4.8,10-9.5,17.8-14.2,23.2c-4.9,5.6-10,8.5-14.8,8.8l-0.1-0.4l0.5-2.6l22.4-58.7l-24.9,0.1
		l-22.8,61.3c0,0-0.1,0.1-0.9,4.9c0,4.1,1.6,7.8,4.8,10.6c3,2.9,6.7,4.3,11,4.3c8-0.1,16.9-4.7,27.3-13.8l-0.2,0.2l-0.5,2.5
		c0,2.3,1.4,5.6,7.5,8.4c4,1.7,7.6,2.6,11.1,2.5c5.9,0,10.7-0.8,17-5.1c2.6-1.8,4.5-3.6,6-5.5c-1.6,4.6-3.2,9.4-3.2,9.4l-0.3,1.2
		l24-0.1l1.1-3.8c3-9.9,5.8-18.6,8.5-25.5c4-10.1,8-18.3,11.9-24.1c4.6-6.8,7-7.9,9.1-8.7l0.8-0.3c1.7-0.5,3.8-0.6,3.8-0.6
		c3.6-0.2,5.5,1.8,6.3,3.1c1,1.7-0.2,4.7-1.3,7c-0.7,2.1-1.4,3.8-0.7,4.8l1.5,0.7c4.8,0,8.8-1.8,11.5-5.2c2.7-3.1,3.9-6.9,3.9-11.2
		C524.6,500.7,522.9,496.6,519.8,493.4"/>
	<path class="st1" d="M519.8,493.4"/>
	<path class="st1" d="M43.3,486.7l1.8,0.3c6.2-24,28.8-46.9,53.7-54.2c15.1-4.4,32-2.8,47.5,4.7c18.7,9.3,33.9,31.4,36.2,52.4
		c1.2,12.3-1.1,30-19.6,44.8c-15.4,12.7-42.2,17.6-52.1,9.6c-4.5-3.6-4.7-10-0.5-18.1l30-77.6l0.3-0.4l-0.4-0.5
		c-0.5-0.8-14.6-20.1-27.9-13.8c-4.3,2-32.6,96.5-41.1,125.6l-0.2,0.8l0.7,0.3c41,15,76.6,15.4,106,1.3
		c21.9-9.2,37.5-31.9,38.6-56.5c1.3-27.3-15.1-52.1-44.8-68v0.1c-0.1-0.2-23.6-14.2-46.2-15.3C98.5,420.8,51,432.8,43.3,486.7"/>
</g>
</svg>
