<svg version="1.2" xmlns="http://www.w3.org/2000/svg" viewBox="0 0 435 500" width="435" height="500"><style>.a{fill:#ebebeb}.b{fill:#e0e0e0}.c{fill:#f0f0f0}.d{fill:#fff}.e{fill:#fafafa}.f{fill:#263238}.g{fill:#4f46e5}.h{opacity:.1}.i{fill:#455a64}.j{fill:#f5f5f5}.k{fill:#b78876}.l{fill:#a36957}</style><path class="a" d="m140.6 68l-95.2 123.7 256-63.7-142.6-64.6c-1.5-0.7-3.1-1.1-4.8-1.3-1.7-0.1-3.4 0-5.1 0.4-1.6 0.4-3.2 1.1-4.6 2.1-1.4 0.9-2.6 2.1-3.7 3.4z"/><path fill-rule="evenodd" class="b" d="m44.1 192.6l96.1-124.9c1.1-1.4 2.4-2.6 3.8-3.6 1.5-0.9 3.1-1.6 4.8-2.1 1.7-0.4 3.5-0.5 5.2-0.4 1.8 0.2 3.5 0.7 5.1 1.4l144 65.2zm108.5-130q-1.7 0-3.3 0.4-1.7 0.4-3.2 1.1-1.5 0.8-2.8 1.9-1.3 1-2.3 2.4l-94.2 122.5 253-62.9-141.2-64q-0.7-0.4-1.4-0.6-0.8-0.2-1.5-0.4-0.8-0.2-1.6-0.2-0.8-0.1-1.5-0.1z"/><path class="c" d="m45.4 191.7l256.9-63.9 34.6 139.2c0.4 1.4 0.5 2.8 0.2 4.2-0.2 1.4-0.6 2.7-1.4 4-0.7 1.2-1.7 2.2-2.8 3-1.1 0.9-2.4 1.5-3.8 1.8l-236.1 58.7c-1.3 0.4-2.8 0.4-4.2 0.2-1.3-0.2-2.7-0.7-3.9-1.4-1.2-0.7-2.2-1.7-3.1-2.8-0.8-1.1-1.4-2.4-1.8-3.8z"/><path class="d" d="m286.5 135.4l-89 91-134.5-30.3-15.4-71.4c-0.4-1.8-0.5-3.7-0.2-5.5 0.3-1.9 1-3.6 2-5.2 0.9-1.6 2.2-3 3.7-4.1 1.5-1.1 3.2-1.9 5.1-2.4l194.6-48.3c1.8-0.5 3.7-0.6 5.6-0.3 1.8 0.3 3.6 0.9 5.3 1.9 1.6 1 3 2.2 4.1 3.8 1.1 1.5 1.9 3.2 2.4 5.1z"/><path class="b" d="m185.3 219.2l-105.7 110.5c0.4 1.5 1 2.9 2 4.1 0.9 1.3 2 2.3 3.4 3.1 1.3 0.8 2.8 1.3 4.3 1.6 1.5 0.2 3.1 0.1 4.6-0.2l234.3-58.3c1.5-0.4 2.9-1 4.1-2 1.3-0.9 2.3-2 3.1-3.4 0.8-1.3 1.4-2.8 1.6-4.3 0.2-1.5 0.2-3.1-0.2-4.6l-0.2-0.8-138.2-48.8q-1.7-0.6-3.5-0.7-1.8-0.1-3.5 0.3-1.8 0.4-3.3 1.3-1.6 0.9-2.8 2.2z"/><path class="b" d="m75.4 137l76.1-18.9 2 7.7-76.2 19z"/><path class="b" d="m80.3 156.7l168.9-42 2.2 8.8-168.9 42z"/><path class="b" d="m85.6 178.2l169-42.1 2.1 8.8-168.9 42z"/><path class="b" d="m258.1 164.6l-5.3 5.3-141.8 37-18.5-4.3-0.7-2 168.4-41.9 0.7 2.9-2.8 3z"/><path class="b" d="m221.8 201.5l-63.8 15.9-19.6-4.5 95.5-23.7-12.1 12.3z"/><path class="e" d="m181.4 223.2q0 0-0.2 0.3l-0.8 0.9-2.9 3.1-10.9 11.6c-9.2 9.7-22 23.1-36.1 37.8-14.2 14.7-27.2 27.9-36.7 37.4-4.7 4.7-8.6 8.5-11.2 11.1l-3.1 3-0.9 0.8q0 0 0 0.1-0.1 0-0.1 0 0 0.1-0.1 0.1 0 0-0.1 0 0.1 0 0.1 0 0-0.1 0.1-0.1 0 0 0-0.1 0.1 0 0.1 0l0.8-0.9 3-3 11.2-11.3c9.4-9.5 22.3-22.8 36.5-37.5 14.2-14.7 27-28 36.2-37.7l11-11.4 3-3.1 0.8-0.8q0.3-0.3 0.3-0.3z"/><path class="e" d="m336.6 264.8c-0.1 0.2-29.6-10.1-65.9-22.8-36.3-12.8-65.7-23.2-65.6-23.4 0.1-0.1 29.5 10.1 65.8 22.9 36.3 12.7 65.7 23.2 65.7 23.3z"/><path class="e" d="m290.8 131.1q-0.1 0-0.1 0 0 0.1 0 0.1-0.1 0-0.1 0.1 0 0 0 0l-0.6 0.7-2.4 2.6-8.8 9.6c-7.5 8.1-17.9 19.1-29.6 31.2-11.7 12.1-22.4 22.9-30.3 30.6l-9.3 9.1-2.5 2.5-0.7 0.6q-0.2 0.2-0.3 0.2 0.1 0 0.1-0.1 0 0 0.1 0 0-0.1 0-0.1 0 0 0.1 0l0.6-0.7 2.5-2.5 9.2-9.3c7.7-7.8 18.4-18.6 30.1-30.7 11.6-12 22.1-23 29.7-31l8.9-9.5 2.5-2.5 0.6-0.7q0 0 0.1-0.1 0 0 0 0 0.1-0.1 0.1-0.1 0 0 0 0z"/><path class="e" d="m181.4 223.2q0 0 0 0-0.1 0-0.1 0-0.1 0-0.1 0-0.1 0-0.1 0l-1-0.3-4-1c-3.4-0.8-8.4-2-14.5-3.5-12.3-2.9-29.4-6.6-48.2-10.7-18.9-4.1-35.9-7.9-48.2-10.9-6.1-1.5-11.1-2.8-14.5-3.7l-3.9-1.1-1-0.2q-0.1-0.1-0.1-0.1-0.1 0-0.1 0 0 0-0.1 0 0 0-0.1-0.1l0.4 0.1 1 0.2 4 1c3.4 0.9 8.4 2.1 14.5 3.5 12.3 2.9 29.4 6.7 48.2 10.8 18.9 4.1 35.9 7.9 48.2 10.9 6.1 1.5 11.1 2.7 14.5 3.7l3.9 1 1 0.3z"/><path class="b" d="m286.5 135.4q0 0-0.3-1l-0.7-2.8c-0.6-2.5-1.6-6.2-2.8-10.9l-10-40.1q-0.8-3.2-1.6-6.5-0.5-1.7-0.9-3.4-0.2-0.8-0.4-1.7-0.1-0.2-0.2-0.4 0-0.2-0.1-0.4-0.1-0.2-0.2-0.4-0.1-0.2-0.1-0.4-0.8-1.7-1.9-3.1-1.2-1.5-2.7-2.6-1.5-1.1-3.2-1.7-1.7-0.7-3.5-0.9-0.5-0.1-1-0.1-0.4-0.1-0.9-0.1-0.5 0-1 0.1-0.4 0-0.9 0.1c-1.3 0.2-2.5 0.5-3.8 0.8l-7.9 2-16.4 4.1-72.9 18.2-73 18.1-16.4 4.1-4 1q-0.5 0.1-1 0.2-0.4 0.1-0.9 0.3-0.5 0.1-1 0.3-0.4 0.1-0.9 0.3-0.9 0.4-1.7 0.9-0.8 0.5-1.6 1.1-0.7 0.6-1.4 1.3-0.7 0.7-1.2 1.5-0.3 0.4-0.5 0.8-0.3 0.4-0.5 0.8-0.2 0.4-0.4 0.9-0.2 0.4-0.4 0.8-0.1 0.5-0.3 0.9-0.1 0.5-0.2 0.9-0.1 0.5-0.2 0.9 0 0.5-0.1 0.9c-0.3 2.5 0.4 4.8 0.9 7.2q1.5 7 2.8 13.4c3.7 17.1 6.6 30.9 8.7 40.5 1 4.7 1.8 8.4 2.3 11q0.4 1.8 0.6 2.8 0.2 1 0.2 1 0 0-0.2-1-0.3-1-0.7-2.8c-0.5-2.6-1.4-6.3-2.4-11-2.1-9.6-5.1-23.4-8.8-40.5q-1.4-6.4-2.9-13.4c-0.5-2.3-1.2-4.7-0.9-7.2q0-0.5 0.1-1 0.1-0.5 0.2-0.9 0.1-0.5 0.2-1 0.1-0.4 0.3-0.9 0.2-0.4 0.4-0.9 0.2-0.4 0.4-0.8 0.2-0.5 0.5-0.9 0.2-0.4 0.5-0.8 0.3-0.4 0.6-0.8 0.3-0.3 0.7-0.7 0.3-0.4 0.7-0.7 0.3-0.3 0.7-0.6 0.4-0.4 0.8-0.7 0.4-0.3 0.8-0.5 0.5-0.3 0.9-0.5 0.4-0.2 0.9-0.4 0.5-0.2 1-0.4 0.4-0.2 0.9-0.3 0.5-0.2 1-0.3 0.5-0.1 1-0.2l4-1 16.4-4.1 73-18.1 73-18.2 16.4-4 7.8-2c1.3-0.3 2.6-0.6 3.9-0.8q1.5-0.3 2.9-0.2 1.5 0.1 2.9 0.5 1.4 0.3 2.7 0.9 1.3 0.7 2.5 1.6 0.7 0.5 1.4 1.2 0.7 0.6 1.2 1.3 0.6 0.8 1.1 1.6 0.5 0.8 0.9 1.6 0 0.2 0.1 0.4 0.1 0.2 0.2 0.4 0.1 0.3 0.1 0.5 0.1 0.2 0.2 0.4 0.2 0.9 0.4 1.7 0.4 1.7 0.9 3.4 0.8 3.3 1.6 6.5l9.9 40.2c1.1 4.7 2 8.4 2.6 10.9q0.5 1.9 0.7 2.9c0.2 0.6 0.1 0.9 0.1 0.9z"/><path class="f" d="m387 449c0 0.1-90.4 0.3-202 0.3-111.6 0-202-0.1-202-0.3 0-0.2 90.4-0.3 202-0.3 111.6 0 202 0.2 202 0.3z"/><path class="g" d="m174.7 82.7l-9.9 7.5 0.5 14.4-9-7.2-5 4.3-19-23.5 42.4 4.5z"/><path class="g" d="m161.1 93.3c0 0.4 4.2 11.3 4.2 11.3l-9.1-7.2z"/><g style="opacity:.3"><path  d="m161.1 93.3c0 0.4 4.2 11.3 4.2 11.3l-9.1-7.2z"/></g><path class="g" d="m132.3 78.2l28.8 15 4.2 11.4-0.5-14.4-32.6-12z"/><path class="h" d="m132.3 78.2l28.8 15 4.2 11.4-0.5-14.4-32.6-12z"/><path class="f" d="m212.3 272.2q-0.7 0-1.4-0.1-0.6-0.1-1.3-0.2-0.6-0.2-1.3-0.4-0.6-0.2-1.2-0.5 0.7 0 1.3 0.1 0.7 0.1 1.3 0.2 0.7 0.2 1.3 0.4 0.6 0.2 1.2 0.5z"/><path class="f" d="m220.4 274.2c0 0.2-0.7 0.1-1.6-0.1-0.8-0.2-1.5-0.5-1.4-0.6 0-0.2 0.7-0.1 1.6 0.1 0.8 0.2 1.5 0.5 1.4 0.6z"/><path class="f" d="m186.7 102.7q-0.4 0-0.7 0-0.3-0.1-0.7-0.1-0.3-0.1-0.6-0.1-0.3-0.1-0.6-0.2-0.4-0.1-0.7-0.1-0.3-0.1-0.6-0.2-0.4-0.1-0.7-0.2-0.3-0.2-0.6-0.3 0.4-0.1 0.7-0.1 0.3 0 0.7 0.1 0.3 0 0.6 0.1 0.4 0 0.7 0.1 0.3 0.1 0.6 0.2 0.4 0.1 0.7 0.2 0.3 0.1 0.6 0.2 0.3 0.2 0.6 0.4z"/><path class="f" d="m196.4 106.8q-0.7-0.2-1.3-0.4-0.6-0.3-1.2-0.6-0.6-0.3-1.2-0.6-0.5-0.3-1.1-0.7 0.4 0 0.7 0.1 0.3 0.1 0.6 0.2 0.4 0.1 0.7 0.2 0.3 0.2 0.6 0.3c1.3 0.7 2.2 1.4 2.2 1.5z"/><path class="f" d="m204.7 113.2c-0.1 0.1-1-0.6-2.1-1.6-1.1-0.9-2-1.7-1.8-1.9q0.3 0.2 0.6 0.3 0.3 0.2 0.6 0.3 0.2 0.2 0.5 0.4 0.3 0.3 0.5 0.5c1.1 1 1.9 1.9 1.7 2z"/><path class="f" d="m211.1 121.5c-0.1 0.1-0.8-0.9-1.6-2q-0.2-0.3-0.4-0.6-0.1-0.3-0.3-0.5-0.2-0.3-0.3-0.6-0.1-0.3-0.3-0.6c0.1-0.1 1 0.7 1.8 2q0.2 0.2 0.4 0.5 0.2 0.3 0.3 0.6 0.2 0.3 0.3 0.6 0.1 0.3 0.1 0.6z"/><path class="f" d="m214.8 131.4q-0.2-0.3-0.3-0.6-0.2-0.3-0.3-0.6-0.1-0.3-0.2-0.6-0.1-0.3-0.1-0.7-0.1-0.3-0.2-0.6-0.1-0.3-0.2-0.6-0.1-0.4-0.1-0.7 0-0.3-0.1-0.7 0.2 0.3 0.4 0.6 0.2 0.3 0.3 0.6 0.2 0.3 0.3 0.6 0 0.3 0.1 0.7 0.1 0.3 0.2 0.6 0.1 0.3 0.2 0.7 0 0.3 0 0.6 0 0.4 0 0.7z"/><path class="f" d="m215.3 141.9q-0.1-0.3-0.1-0.6 0-0.4-0.1-0.7 0-0.3 0-0.7 0.1-0.3 0.1-0.6 0-0.4 0-0.7 0-0.3 0-0.6 0-0.4 0.1-0.7 0.1-0.3 0.1-0.7 0.2 0.4 0.2 0.7 0.1 0.3 0.1 0.7 0.1 0.3 0.1 0.6 0 0.4-0.1 0.7 0.1 0.3 0.1 0.7-0.1 0.3-0.1 0.6-0.1 0.4-0.2 0.7-0.1 0.3-0.2 0.6z"/><path class="f" d="m212.6 152.1q0-0.4 0.1-0.7 0.1-0.3 0.1-0.6 0.1-0.4 0.3-0.7 0.1-0.3 0.2-0.6 0.1-0.3 0.2-0.6 0.1-0.3 0.2-0.6 0.1-0.3 0.3-0.6 0.1-0.3 0.3-0.6 0 0.3 0 0.7 0 0.3-0.1 0.6 0 0.4-0.2 0.7-0.1 0.3-0.2 0.6-0.1 0.3-0.2 0.6-0.1 0.4-0.3 0.7-0.1 0.3-0.3 0.5-0.2 0.3-0.4 0.6z"/><path class="f" d="m206.5 160.6c-0.1-0.1 0.7-1 1.6-2.1 1-1.1 1.7-2 1.8-1.9q-0.1 0.3-0.2 0.7-0.2 0.3-0.3 0.5-0.2 0.3-0.4 0.6-0.2 0.2-0.5 0.5c-1 1.1-1.9 1.8-2 1.7z"/><path class="f" d="m197.6 166.3q0.3-0.2 0.6-0.4 0.2-0.2 0.5-0.4 0.3-0.2 0.6-0.3 0.3-0.2 0.6-0.3 0.3-0.2 0.6-0.3 0.3-0.2 0.6-0.3 0.3-0.2 0.6-0.3 0.3-0.1 0.6-0.2-0.2 0.3-0.4 0.5-0.3 0.3-0.6 0.5-0.2 0.2-0.5 0.3-0.3 0.2-0.6 0.3-0.3 0.2-0.6 0.3-0.3 0.2-0.6 0.3-0.4 0.1-0.7 0.2-0.3 0.1-0.7 0.1z"/><path class="f" d="m187.4 168.5q0.3-0.1 0.6-0.2 0.3-0.1 0.7-0.2 0.3 0 0.6-0.1 0.4 0 0.7 0 0.3-0.1 0.7-0.1 0.3-0.1 0.6-0.1 0.3 0 0.7 0 0.3 0 0.6 0-0.3 0.2-0.6 0.3-0.3 0.2-0.6 0.2-0.3 0.1-0.7 0.2-0.3 0-0.6 0-0.4 0.1-0.7 0.2-0.3 0-0.7 0-0.3 0-0.6-0.1-0.4 0-0.7-0.1z"/><path class="f" d="m177.1 166.5q0.6 0.2 1.3 0.3 0.6 0.2 1.2 0.4 0.7 0.2 1.3 0.4 0.6 0.2 1.2 0.5-0.3 0-0.7 0-0.3 0-0.7 0-0.3-0.1-0.6-0.2-0.3-0.1-0.6-0.2-0.4-0.1-0.7-0.2-0.3-0.1-0.6-0.2-0.3-0.2-0.6-0.4-0.3-0.1-0.5-0.4z"/><path class="f" d="m169.8 159.3c0.1-0.1 0.6 1 1.4 2.2 0.8 1.2 1.6 2 1.5 2.1-0.1 0.2-1.1-0.6-1.9-1.8q-0.3-0.3-0.4-0.6-0.2-0.2-0.3-0.6-0.2-0.3-0.2-0.6-0.1-0.4-0.1-0.7z"/><path class="f" d="m174.2 151.1c0 0.2-1.1 0.5-2.2 1.3-1.1 0.8-1.7 1.9-1.9 1.8-0.1-0.1 0.3-1.3 1.6-2.2q0.2-0.2 0.5-0.4 0.3-0.2 0.7-0.3 0.3-0.1 0.6-0.2 0.4 0 0.7 0z"/><path class="f" d="m183.3 154.9c-0.2 0-0.8-0.9-1.8-1.9-1.1-1-2.1-1.4-2-1.6q0.3 0 0.6 0.1 0.4 0.1 0.7 0.3 0.3 0.1 0.6 0.3 0.2 0.2 0.5 0.5 0.2 0.2 0.5 0.5 0.2 0.2 0.4 0.5 0.1 0.3 0.3 0.6 0.1 0.3 0.2 0.7z"/><path class="f" d="m183.6 165.1q0-0.4 0.1-0.7 0-0.3 0.1-0.6 0-0.3 0.1-0.7 0.1-0.3 0.2-0.6 0-0.3 0.1-0.7 0-0.3 0.1-0.6 0-0.3 0.1-0.6 0.1-0.4 0.2-0.7 0.1 0.3 0.1 0.7 0.1 0.3 0.1 0.7 0 0.3-0.1 0.6 0 0.4-0.1 0.7 0 0.3-0.1 0.7-0.1 0.3-0.2 0.6-0.1 0.3-0.3 0.6-0.2 0.3-0.4 0.6z"/><path class="f" d="m176.8 172.9c-0.1-0.1 0.8-0.9 1.9-1.8 1.1-0.9 2-1.7 2-1.6 0.1 0.1-0.5 1.1-1.7 2-1.1 0.9-2.2 1.6-2.2 1.4z"/><path class="f" d="m167.4 177.8q0.3-0.2 0.5-0.4 0.3-0.2 0.6-0.4 0.3-0.2 0.6-0.3 0.3-0.2 0.6-0.3 0.3-0.1 0.6-0.3 0.3-0.1 0.6-0.2 0.3-0.1 0.6-0.2 0.4-0.1 0.7-0.1-0.5 0.4-1.1 0.7-0.6 0.4-1.2 0.6-0.6 0.3-1.2 0.5-0.6 0.2-1.3 0.4z"/><path class="f" d="m158 182.6c-0.1-0.2 0.9-0.9 2.1-1.6q0.3-0.2 0.6-0.4 0.3-0.2 0.6-0.3 0.3-0.1 0.6-0.2 0.4-0.1 0.7-0.1c0.1 0.1-0.9 0.7-2.2 1.4q-0.3 0.2-0.6 0.4-0.2 0.2-0.5 0.3-0.3 0.2-0.7 0.3-0.3 0.1-0.6 0.2z"/><path class="f" d="m150 189.4c-0.1-0.1 0.6-1 1.6-2.1q0.2-0.2 0.5-0.5 0.2-0.2 0.5-0.4 0.3-0.2 0.6-0.4 0.3-0.1 0.6-0.3c0.1 0.2-0.8 1-1.8 2-1 1-1.8 1.8-2 1.7z"/><path class="f" d="m144 198.1q0.1-0.4 0.2-0.7 0.1-0.3 0.2-0.6 0.1-0.3 0.3-0.6 0.2-0.3 0.4-0.6c0.8-1.2 1.5-2.1 1.7-2q-0.1 0.3-0.3 0.6-0.1 0.3-0.2 0.6-0.2 0.3-0.4 0.6-0.1 0.3-0.3 0.5c-0.8 1.3-1.5 2.2-1.6 2.2z"/><path class="f" d="m140.2 207.9q-0.1-0.4 0-0.7 0-0.3 0-0.7 0.1-0.3 0.2-0.6 0.1-0.3 0.2-0.7 0.1-0.3 0.2-0.6 0.1-0.3 0.3-0.6 0.1-0.3 0.3-0.6 0.2-0.3 0.4-0.6-0.1 0.7-0.3 1.3-0.1 0.7-0.3 1.3-0.2 0.6-0.5 1.2-0.2 0.7-0.5 1.2z"/><path class="f" d="m138.8 218.3q-0.2-0.7-0.2-1.3 0-0.7 0-1.4 0-0.6 0.2-1.3 0.1-0.6 0.3-1.3 0.1 0.4 0.1 0.7 0.1 0.3 0.1 0.7 0 0.3-0.1 0.6 0 0.4-0.1 0.7 0.1 0.3 0 0.6 0 0.4 0 0.7-0.1 0.3-0.1 0.7-0.1 0.3-0.2 0.6z"/><path class="f" d="m140.2 228.7q-0.2-0.3-0.3-0.6-0.2-0.3-0.3-0.6-0.1-0.3-0.2-0.6 0-0.4-0.1-0.7-0.1-0.3-0.1-0.6-0.1-0.4-0.1-0.7-0.1-0.3-0.1-0.7 0.1-0.3 0.1-0.6 0.2 0.3 0.3 0.6 0.1 0.3 0.2 0.6 0.1 0.3 0.2 0.6 0 0.4 0.1 0.7 0.1 0.3 0.1 0.6 0.1 0.4 0.2 0.7 0 0.3 0 0.7 0 0.3 0 0.6z"/><path class="f" d="m144.2 238.4c-0.1 0.1-0.8-0.8-1.5-2.2q-0.1-0.3-0.3-0.6-0.1-0.3-0.2-0.6-0.1-0.3-0.2-0.6-0.1-0.4-0.1-0.7 0.2 0.3 0.4 0.5 0.2 0.3 0.4 0.6 0.1 0.3 0.3 0.6 0.1 0.3 0.2 0.6 0.2 0.3 0.4 0.6 0.1 0.3 0.2 0.6 0.2 0.3 0.3 0.6 0.1 0.3 0.1 0.6z"/><path class="f" d="m150.6 246.9c-0.1 0.1-1-0.7-2-1.8q-0.3-0.3-0.5-0.5-0.2-0.3-0.4-0.6-0.2-0.2-0.3-0.5-0.2-0.3-0.3-0.7c0.1-0.1 0.9 0.8 1.9 1.9 0.9 1.1 1.7 2 1.6 2.2z"/><path class="f" d="m158.7 253.6q-0.4-0.1-0.7-0.3-0.3-0.1-0.6-0.2-0.3-0.2-0.5-0.4-0.3-0.2-0.6-0.4c-1.2-0.9-2-1.7-1.9-1.9q0.3 0.2 0.6 0.3 0.3 0.2 0.6 0.4 0.3 0.1 0.5 0.3 0.3 0.2 0.6 0.4c1.1 0.9 2.1 1.6 2 1.8z"/><path class="f" d="m168.2 258.1q-0.4 0-0.7 0-0.3-0.1-0.7-0.2-0.3-0.1-0.6-0.2-0.3-0.1-0.6-0.2-0.3-0.1-0.6-0.3-0.4-0.1-0.6-0.3-0.3-0.1-0.6-0.3-0.3-0.2-0.5-0.5 0.3 0.1 0.6 0.2 0.4 0 0.7 0.1 0.3 0.1 0.6 0.3 0.3 0.1 0.6 0.2 0.3 0.1 0.6 0.3 0.3 0.1 0.6 0.2 0.3 0.2 0.6 0.3 0.3 0.2 0.6 0.4z"/><path class="f" d="m173.5 259.4c0 0.2-0.1 0.3-0.2 0.3 0 0 0-0.1 0-0.3 0.1-0.1 0.1-0.3 0.2-0.2 0 0 0 0.1 0 0.3z"/><path class="g" d="m154.9 229.7l10.9 3.6-2.2 6.8-11-3.6z"/><g style="opacity:.3"><path  d="m154.9 229.7l10.9 3.6-2.2 6.8-11-3.6z"/></g><path class="g" d="m165.8 233.3q-0.8 0.4-1.6 0.7-0.7 0.4-1.5 0.7-0.8 0.3-1.6 0.6-0.8 0.3-1.6 0.6h-0.2l-0.2-0.1-0.2-0.3q-0.5-0.6-1.1-1.4-0.5-0.7-1-1.4-0.5-0.7-1-1.5-0.5-0.7-0.9-1.5 0.6 0.6 1.2 1.3 0.6 0.7 1.1 1.4 0.6 0.7 1.1 1.4 0.6 0.7 1.1 1.4l0.2 0.3-0.3-0.1q0.8-0.4 1.6-0.7 0.8-0.2 1.6-0.5 0.8-0.3 1.6-0.5 0.9-0.2 1.7-0.4z"/><g style="opacity:.1"><path  d="m165.8 233.3q-0.8 0.4-1.6 0.7-0.7 0.4-1.5 0.7-0.8 0.3-1.6 0.6-0.8 0.3-1.6 0.6h-0.2l-0.2-0.1-0.2-0.3q-0.5-0.6-1.1-1.4-0.5-0.7-1-1.4-0.5-0.7-1-1.5-0.5-0.7-0.9-1.5 0.6 0.6 1.2 1.3 0.6 0.7 1.1 1.4 0.6 0.7 1.1 1.4 0.6 0.7 1.1 1.4l0.2 0.3-0.3-0.1q0.8-0.4 1.6-0.7 0.8-0.2 1.6-0.5 0.8-0.3 1.6-0.5 0.9-0.2 1.7-0.4z"/></g><path class="g" d="m158 233.8q-0.3 0.3-0.6 0.5-0.3 0.3-0.6 0.5-0.3 0.2-0.7 0.3-0.3 0.2-0.7 0.3-0.3 0.2-0.6 0.4-0.4 0.1-0.7 0.3-0.4 0.1-0.8 0.2-0.3 0.1-0.7 0.2 0.3-0.3 0.6-0.5 0.3-0.2 0.6-0.4 0.4-0.2 0.7-0.4 0.3-0.1 0.7-0.3 0.3-0.2 0.7-0.3 0.3-0.2 0.6-0.3 0.4-0.2 0.8-0.3 0.3-0.1 0.7-0.2z"/><g style="opacity:.1"><path  d="m158 233.8q-0.3 0.3-0.6 0.5-0.3 0.3-0.6 0.5-0.3 0.2-0.7 0.3-0.3 0.2-0.7 0.3-0.3 0.2-0.6 0.4-0.4 0.1-0.7 0.3-0.4 0.1-0.8 0.2-0.3 0.1-0.7 0.2 0.3-0.3 0.6-0.5 0.3-0.2 0.6-0.4 0.4-0.2 0.7-0.4 0.3-0.1 0.7-0.3 0.3-0.2 0.7-0.3 0.3-0.2 0.6-0.3 0.4-0.2 0.8-0.3 0.3-0.1 0.7-0.2z"/></g><path class="g" d="m163.8 240.1q-0.3-0.2-0.5-0.5-0.2-0.3-0.4-0.7-0.1-0.3-0.3-0.6-0.1-0.3-0.2-0.7c-0.7-1.5-1.2-2.8-1-2.7q0.3 0.2 0.5 0.5 0.2 0.3 0.4 0.7 0.1 0.3 0.3 0.6 0.1 0.3 0.3 0.7 0.1 0.3 0.3 0.6 0.1 0.4 0.2 0.7 0.1 0.4 0.2 0.7 0.1 0.4 0.1 0.7z"/><g style="opacity:.1"><path  d="m163.8 240.1q-0.3-0.2-0.5-0.5-0.2-0.3-0.4-0.7-0.1-0.3-0.3-0.6-0.1-0.3-0.2-0.7c-0.7-1.5-1.2-2.8-1-2.7q0.3 0.2 0.5 0.5 0.2 0.3 0.4 0.7 0.1 0.3 0.3 0.6 0.1 0.3 0.3 0.7 0.1 0.3 0.3 0.6 0.1 0.4 0.2 0.7 0.1 0.4 0.2 0.7 0.1 0.4 0.1 0.7z"/></g><path class="g" d="m182.3 250.7l28.1 9.2-5.7 17.5-28.2-9.2z"/><path class="g" d="m210.4 259.9q-0.2 0.1-0.3 0.2-0.2 0.1-0.3 0.1-0.2 0.1-0.4 0.2-0.1 0-0.3 0.1l-3.5 1.4c-3 1.1-7.1 2.6-11.7 4.3l-0.2 0.1-0.1-0.2-0.5-0.6c-3-4-5.8-7.7-7.8-10.4l-2.3-3.2q-0.1-0.1-0.2-0.3-0.1-0.1-0.2-0.3-0.1-0.1-0.2-0.3-0.1-0.1-0.2-0.3 0.1 0.1 0.3 0.2 0.1 0.2 0.2 0.3 0.2 0.1 0.3 0.3 0.1 0.1 0.2 0.3l2.5 3.1c2 2.6 4.8 6.2 7.9 10.3l0.5 0.6-0.4-0.1c4.6-1.7 8.8-3.1 11.8-4.2l3.6-1.2q0.1-0.1 0.3-0.1 0.1-0.1 0.3-0.1 0.2-0.1 0.3-0.1 0.2 0 0.4-0.1z"/><g style="opacity:.2"><path  d="m210.4 259.9q-0.2 0.1-0.3 0.2-0.2 0.1-0.3 0.1-0.2 0.1-0.4 0.2-0.1 0-0.3 0.1l-3.5 1.4c-3 1.1-7.1 2.6-11.7 4.3l-0.2 0.1-0.1-0.2-0.5-0.6c-3-4-5.8-7.7-7.8-10.4l-2.3-3.2q-0.1-0.1-0.2-0.3-0.1-0.1-0.2-0.3-0.1-0.1-0.2-0.3-0.1-0.1-0.2-0.3 0.1 0.1 0.3 0.2 0.1 0.2 0.2 0.3 0.2 0.1 0.3 0.3 0.1 0.1 0.2 0.3l2.5 3.1c2 2.6 4.8 6.2 7.9 10.3l0.5 0.6-0.4-0.1c4.6-1.7 8.8-3.1 11.8-4.2l3.6-1.2q0.1-0.1 0.3-0.1 0.1-0.1 0.3-0.1 0.2-0.1 0.3-0.1 0.2 0 0.4-0.1z"/></g><path class="g" d="m190.4 261.4q-0.8 0.5-1.7 1-0.8 0.5-1.7 1-0.8 0.4-1.7 0.8-0.9 0.5-1.7 0.9-0.9 0.4-1.8 0.8-0.8 0.4-1.7 0.8-0.9 0.4-1.8 0.8-0.9 0.4-1.8 0.7 0.8-0.5 1.7-1 0.8-0.5 1.6-1 0.9-0.4 1.8-0.8 0.8-0.5 1.7-0.8 0.9-0.5 1.7-0.9 0.9-0.5 1.8-0.8 0.9-0.4 1.8-0.8 0.9-0.4 1.8-0.7z"/><g style="opacity:.2"><path  d="m190.4 261.4q-0.8 0.5-1.7 1-0.8 0.5-1.7 1-0.8 0.4-1.7 0.8-0.9 0.5-1.7 0.9-0.9 0.4-1.8 0.8-0.8 0.4-1.7 0.8-0.9 0.4-1.8 0.8-0.9 0.4-1.8 0.7 0.8-0.5 1.7-1 0.8-0.5 1.6-1 0.9-0.4 1.8-0.8 0.8-0.5 1.7-0.8 0.9-0.5 1.7-0.9 0.9-0.5 1.8-0.8 0.9-0.4 1.8-0.8 0.9-0.4 1.8-0.7z"/></g><path class="g" d="m205.1 277.6q-0.4-0.8-0.9-1.6-0.4-0.9-0.8-1.7-0.4-0.8-0.8-1.7-0.3-0.8-0.7-1.7-0.4-0.8-0.7-1.7-0.4-0.8-0.7-1.7-0.4-0.9-0.7-1.7-0.3-0.9-0.6-1.8 0.5 0.8 0.9 1.6 0.5 0.8 0.9 1.7 0.4 0.8 0.7 1.7 0.4 0.8 0.7 1.7 0.4 0.8 0.8 1.7 0.4 0.8 0.7 1.7 0.4 0.9 0.7 1.7 0.3 0.9 0.5 1.8z"/><g style="opacity:.2"><path  d="m205.1 277.6q-0.4-0.8-0.9-1.6-0.4-0.9-0.8-1.7-0.4-0.8-0.8-1.7-0.3-0.8-0.7-1.7-0.4-0.8-0.7-1.7-0.4-0.8-0.7-1.7-0.4-0.9-0.7-1.7-0.3-0.9-0.6-1.8 0.5 0.8 0.9 1.6 0.5 0.8 0.9 1.7 0.4 0.8 0.7 1.7 0.4 0.8 0.7 1.7 0.4 0.8 0.8 1.7 0.4 0.8 0.7 1.7 0.4 0.9 0.7 1.7 0.3 0.9 0.5 1.8z"/></g><path class="f" d="m183.8 255c-1.4 1.1-3.4 1.1-4.9 0.2-1.5-0.9-2.3-2.6-2-4.4 0.2-1.8 1.5-3.2 3.3-3.6 1.7-0.4 3.5 0.2 4.5 1.7q0.6 0.7 0.8 1.5 0.2 0.9 0 1.7-0.1 0.9-0.5 1.6-0.5 0.8-1.2 1.3z"/><path class="d" d="m184 250.7q-0.3 0.2-0.7 0.5-0.4 0.2-0.7 0.4-0.4 0.3-0.8 0.5-0.4 0.2-0.7 0.4l-0.7 0.4h-0.2v-0.1q-0.2-0.3-0.4-0.6-0.2-0.3-0.3-0.5-0.2-0.3-0.3-0.6-0.1-0.4-0.2-0.7 0.2 0.3 0.4 0.6 0.1 0.2 0.3 0.5 0.2 0.3 0.4 0.6 0.1 0.3 0.3 0.6l-0.2-0.1 0.7-0.4q0.4-0.2 0.8-0.4 0.3-0.2 0.7-0.4 0.4-0.2 0.8-0.4 0.4-0.2 0.8-0.3z"/><path class="g" d="m177.6 231.5l14.7 4.8-3 9.2-14.7-4.8z"/><g style="opacity:.2"><path  d="m177.6 231.5l14.7 4.8-3 9.2-14.7-4.8z"/></g><path class="g" d="m192.3 236.3q-0.1 0.1-0.1 0.1-0.1 0.1-0.2 0.1-0.1 0-0.2 0.1-0.1 0-0.1 0l-1.9 0.8c-1.5 0.6-3.7 1.4-6.1 2.2h-0.1l-0.1-0.1-0.2-0.3c-1.6-2.1-3-4-4.1-5.4l-1.2-1.7q-0.1 0-0.1-0.1-0.1-0.1-0.1-0.2-0.1-0.1-0.1-0.1-0.1-0.1-0.1-0.2 0.1 0.1 0.1 0.1 0.1 0.1 0.2 0.2 0 0 0.1 0.1 0 0.1 0.1 0.2l1.3 1.6c1 1.4 2.5 3.3 4.1 5.4l0.3 0.3h-0.2c2.4-0.9 4.6-1.6 6.2-2.2l1.8-0.6q0.1-0.1 0.2-0.1 0.1 0 0.2-0.1 0 0 0.1 0 0.1 0 0.2-0.1z"/><g style="opacity:.2"><path class="g" d="m192.3 236.3q-0.1 0.1-0.1 0.1-0.1 0.1-0.2 0.1-0.1 0-0.2 0.1-0.1 0-0.1 0l-1.9 0.8c-1.5 0.6-3.7 1.4-6.1 2.2h-0.1l-0.1-0.1-0.2-0.3c-1.6-2.1-3-4-4.1-5.4l-1.2-1.7q-0.1 0-0.1-0.1-0.1-0.1-0.1-0.2-0.1-0.1-0.1-0.1-0.1-0.1-0.1-0.2 0.1 0.1 0.1 0.1 0.1 0.1 0.2 0.2 0 0 0.1 0.1 0 0.1 0.1 0.2l1.3 1.6c1 1.4 2.5 3.3 4.1 5.4l0.3 0.3h-0.2c2.4-0.9 4.6-1.6 6.2-2.2l1.8-0.6q0.1-0.1 0.2-0.1 0.1 0 0.2-0.1 0 0 0.1 0 0.1 0 0.2-0.1z"/></g><path class="g" d="m181.8 237.1q-0.4 0.3-0.8 0.5-0.5 0.3-0.9 0.5-0.5 0.3-0.9 0.5-0.5 0.2-0.9 0.4-0.5 0.3-0.9 0.5-0.5 0.2-1 0.4-0.4 0.2-0.9 0.4-0.5 0.2-0.9 0.4 0.4-0.3 0.8-0.6 0.5-0.2 0.9-0.5 0.5-0.2 0.9-0.4 0.5-0.2 0.9-0.4 0.5-0.3 0.9-0.5 0.5-0.2 1-0.4 0.4-0.2 0.9-0.4 0.5-0.2 0.9-0.4z"/><g style="opacity:.2"><path class="g" d="m181.8 237.1q-0.4 0.3-0.8 0.5-0.5 0.3-0.9 0.5-0.5 0.3-0.9 0.5-0.5 0.2-0.9 0.4-0.5 0.3-0.9 0.5-0.5 0.2-1 0.4-0.4 0.2-0.9 0.4-0.5 0.2-0.9 0.4 0.4-0.3 0.8-0.6 0.5-0.2 0.9-0.5 0.5-0.2 0.9-0.4 0.5-0.2 0.9-0.4 0.5-0.3 0.9-0.5 0.5-0.2 1-0.4 0.4-0.2 0.9-0.4 0.5-0.2 0.9-0.4z"/></g><path class="g" d="m189.6 245.6q-0.3-0.4-0.5-0.9-0.2-0.4-0.4-0.8-0.2-0.5-0.4-0.9-0.2-0.5-0.4-0.9-0.2-0.4-0.4-0.9-0.2-0.4-0.4-0.9-0.2-0.4-0.3-0.9-0.2-0.5-0.3-0.9 0.4 0.8 0.8 1.7 0.5 0.9 0.9 1.8 0.3 0.9 0.7 1.8 0.4 0.9 0.7 1.8z"/><g style="opacity:.2"><path class="g" d="m189.6 245.6q-0.3-0.4-0.5-0.9-0.2-0.4-0.4-0.8-0.2-0.5-0.4-0.9-0.2-0.5-0.4-0.9-0.2-0.4-0.4-0.9-0.2-0.4-0.4-0.9-0.2-0.4-0.3-0.9-0.2-0.5-0.3-0.9 0.4 0.8 0.8 1.7 0.5 0.9 0.9 1.8 0.3 0.9 0.7 1.8 0.4 0.9 0.7 1.8z"/></g><path class="f" d="m74 121.6c-2.1 8.2-8.9 14.3-17.2 15.5-8.4 1.2-16.7-2.7-21-10-4.3-7.3-3.8-16.4 1.2-23.2 5.1-6.7 13.7-9.8 21.9-7.7 2.7 0.7 5.2 1.9 7.4 3.5 2.1 1.6 4 3.7 5.4 6.1 1.4 2.3 2.3 4.9 2.7 7.6 0.4 2.7 0.3 5.5-0.4 8.2z"/><path class="d" d="m61.5 105.1c0.3 0.2-2 7.2-5.3 15.6-0.5 1.3-1 2.4-1.4 3.6l-0.3 0.6-0.6-0.2c-6.8-2.6-11.7-4.8-11.6-5.1 0.1-0.3 5.2 1.3 12.1 3.8l-0.9 0.4q0.6-1.7 1.4-3.6c3.2-8.5 6.2-15.2 6.6-15.1z"/><path class="g" d="m330.6 417.1q1.4-0.7 2.9-1.1 1.5-0.4 3-0.6 1.6-0.2 3.1-0.1 1.5 0 3 0.3c2.2 0.4 4.5 1 6 2.7 1.5 1.6 1.7 4.5 0 5.9q-0.4 0.3-0.8 0.5-0.5 0.2-0.9 0.3-0.5 0.1-1 0.2-0.5 0-1-0.1c-3.2 0-6.7-0.6-9.2 1.4-1.5 1-2.4 2.9-4.2 3.4q-0.6 0.1-1.3 0.1-0.6-0.1-1.3-0.4-0.6-0.2-1.1-0.7-0.4-0.4-0.8-1-0.3-0.6-0.5-1.2-0.2-0.7-0.2-1.3-0.1-0.7 0-1.4 0-0.6 0.2-1.3 0.2-0.9 0.5-1.7 0.4-0.8 0.9-1.6 0.6-0.7 1.3-1.3 0.6-0.6 1.4-1z"/><g style="opacity:.2"><path class="d" d="m330.6 417.1q1.4-0.7 2.9-1.1 1.5-0.4 3-0.6 1.6-0.2 3.1-0.1 1.5 0 3 0.3c2.2 0.4 4.5 1 6 2.7 1.5 1.6 1.7 4.5 0 5.9q-0.4 0.3-0.8 0.5-0.5 0.2-0.9 0.3-0.5 0.1-1 0.2-0.5 0-1-0.1c-3.2 0-6.7-0.6-9.2 1.4-1.5 1-2.4 2.9-4.2 3.4q-0.6 0.1-1.3 0.1-0.6-0.1-1.3-0.4-0.6-0.2-1.1-0.7-0.4-0.4-0.8-1-0.3-0.6-0.5-1.2-0.2-0.7-0.2-1.3-0.1-0.7 0-1.4 0-0.6 0.2-1.3 0.2-0.9 0.5-1.7 0.4-0.8 0.9-1.6 0.6-0.7 1.3-1.3 0.6-0.6 1.4-1z"/></g><path class="g" d="m322.3 400.9c2.2 3.2 6.6 2.2 8.6 0.2 2-1.9 2.8-4.8 3.6-7.4 1.8-6.2 3.6-12.6 2.2-18.9q-0.1-0.7-0.3-1.4-0.2-0.7-0.5-1.3-0.3-0.7-0.7-1.3-0.4-0.6-0.9-1.1-0.4-0.6-1-1-0.6-0.4-1.3-0.6-0.7-0.2-1.4-0.3-0.7 0-1.5 0.1c-2.1 0.6-3.5 2.8-4.5 4.8q-1.1 2.3-1.9 4.6-0.8 2.4-1.4 4.8-0.5 2.4-0.8 4.9-0.3 2.5-0.3 5c0 3.1 0.3 6.4 2.1 8.9z"/><path class="g" d="m316.1 405.5c2.5-2.9 2.9-7.1 1.8-10.7q-0.4-1.3-1-2.6-0.7-1.2-1.5-2.4-0.8-1.2-1.7-2.2-1-1.1-2.1-2-1.2-1.1-2.5-2-1.4-1-2.8-1.8-1.4-0.9-2.9-1.6-1.5-0.7-3.1-1.2-0.6-0.2-1.2-0.4-0.7-0.2-1.3-0.3-0.6-0.1-1.3-0.2-0.6 0-1.3 0-0.7 0.1-1.3 0.3-0.6 0.2-1.2 0.5-0.5 0.3-1 0.8-0.4 0.5-0.8 1c-1.2 2.3 0 5 1.2 7.3q0.8 1.5 1.7 2.9 0.9 1.5 1.8 2.9 0.9 1.4 1.9 2.8 1 1.4 2.1 2.7c2.2 2.9 4.7 5.7 8.1 7 3.4 1.3 7 1.2 8.8-1.2"/><g style="opacity:.1"><path  d="m316.1 405.5c2.5-2.9 2.9-7.1 1.8-10.7q-0.4-1.3-1-2.6-0.7-1.2-1.5-2.4-0.8-1.2-1.7-2.2-1-1.1-2.1-2-1.2-1.1-2.5-2-1.4-1-2.8-1.8-1.4-0.9-2.9-1.6-1.5-0.7-3.1-1.2-0.6-0.2-1.2-0.4-0.7-0.2-1.3-0.3-0.6-0.1-1.3-0.2-0.6 0-1.3 0-0.7 0.1-1.3 0.3-0.6 0.2-1.2 0.5-0.5 0.3-1 0.8-0.4 0.5-0.8 1c-1.2 2.3 0 5 1.2 7.3q0.8 1.5 1.7 2.9 0.9 1.5 1.8 2.9 0.9 1.4 1.9 2.8 1 1.4 2.1 2.7c2.2 2.9 4.7 5.7 8.1 7 3.4 1.3 7 1.2 8.8-1.2"/></g><path class="f" d="m322.1 449.1q0.1-0.2 0.1-0.4 0-0.2 0.1-0.4 0-0.1 0-0.3 0-0.2 0-0.4 0.2-1.6 0.4-4 0.1-0.7 0.2-1.4 0.1-0.8 0.2-1.5 0.1-0.7 0.2-1.4 0.2-0.8 0.3-1.5 0.2-0.9 0.4-1.7 0.3-0.9 0.5-1.8 0.3-0.8 0.6-1.7 0.3-0.8 0.6-1.6 0.3-0.9 0.7-1.7 0.4-0.8 0.9-1.6 0.4-0.7 0.9-1.5 0.5-0.7 1-1.4 0.5-0.6 1-1.1 0.5-0.6 1-1 0.6-0.5 1.2-0.9 0.6-0.4 1.2-0.7 0.5-0.2 0.9-0.4 0.5-0.2 1-0.3 0.4-0.2 0.9-0.3 0.5-0.1 1-0.2 0.1 0 0.3 0 0.2 0 0.4 0 0.2-0.1 0.3-0.1 0.2 0 0.4-0.1-0.2 0-0.4 0-0.1 0-0.3 0-0.2 0-0.4 0-0.2 0-0.4 0-0.5 0.1-1 0.1-0.5 0.1-0.9 0.2-0.5 0.2-1 0.3-0.5 0.2-0.9 0.4-0.7 0.3-1.4 0.7-0.6 0.4-1.2 0.9-0.6 0.5-1.1 1-0.5 0.5-1 1.1-0.6 0.7-1.1 1.5-0.5 0.8-1 1.6-0.4 0.7-0.8 1.6-0.4 0.8-0.7 1.6-0.4 0.9-0.7 1.8-0.3 0.8-0.5 1.7-0.3 0.9-0.5 1.8-0.2 0.9-0.4 1.7-0.2 0.8-0.3 1.5-0.1 0.7-0.2 1.5-0.1 0.7-0.2 1.4 0 0.8-0.1 1.5c-0.1 1.7-0.2 3-0.2 4q0 0.2 0 0.4 0 0.2 0 0.3 0 0.2 0 0.4 0 0.2 0 0.4z"/><path class="f" d="m322.4 446q0-0.1 0-0.2 0-0.1 0-0.1 0-0.1 0-0.2 0-0.1 0-0.2v-1.9c0-1.7 0-4.1 0.1-7.1 0.1-6 0.6-14.2 1.6-23.2 1-9.1 2.4-17.2 3.6-23q0.4-2.2 0.8-4c0.3-1.1 0.5-2.1 0.7-3 0.2-0.8 0.3-1.3 0.4-1.8q0.1-0.1 0.1-0.2 0-0.1 0-0.2 0 0 0.1-0.1 0-0.1 0-0.2-0.1 0.1-0.1 0.2 0 0-0.1 0.1 0 0.1 0 0.2 0 0.1-0.1 0.1l-0.5 1.9q-0.4 1.2-0.8 2.9-0.5 1.8-1 4-0.6 2.8-1.1 5.7-0.5 2.8-1 5.7-0.5 2.9-0.8 5.8-0.4 2.9-0.7 5.8c-1 9.1-1.5 17.3-1.5 23.3 0 3 0 5.4 0.1 7.1q0.1 1.2 0.1 1.9 0 0.1 0 0.2 0 0.1 0 0.2 0.1 0 0.1 0.1 0 0.1 0 0.2z"/><path class="f" d="m322.4 430.1q0.1-0.3 0.1-0.5 0-0.3 0-0.5 0-0.3 0-0.5 0-0.3-0.1-0.5 0-0.7-0.1-1.4 0-0.7-0.1-1.3-0.1-0.7-0.2-1.4-0.1-0.7-0.2-1.4-0.4-2.2-0.9-4.4-0.5-2.2-1.1-4.4-0.6-2.1-1.4-4.3-0.8-2.1-1.7-4.2-0.8-2.1-1.9-4.1-1-2-2.2-3.9-1.3-1.9-2.7-3.7-1.4-1.8-2.9-3.5-0.3-0.2-0.5-0.5-0.3-0.3-0.6-0.6-0.3-0.2-0.6-0.5-0.3-0.2-0.6-0.5c-0.3-0.3-0.7-0.6-1-0.8l-0.9-0.6q-0.2-0.2-0.4-0.3-0.2-0.2-0.4-0.3-0.2-0.1-0.4-0.3-0.2-0.1-0.5-0.2 0.8 0.6 1.5 1.2 0.7 0.6 1.4 1.2 0.7 0.6 1.3 1.2 0.7 0.7 1.4 1.3 1.5 1.7 2.8 3.5 1.4 1.8 2.6 3.7 1.2 1.9 2.2 3.9 1 2 1.9 4 0.5 1.2 0.9 2.3 0.5 1.2 0.9 2.3 0.4 1.2 0.8 2.4 0.4 1.2 0.7 2.4c0.9 2.9 1.5 5.5 1.9 7.8 0.4 2.3 0.6 4.1 0.8 5.4q0 0.2 0 0.5 0.1 0.2 0.1 0.5 0 0.2 0.1 0.5 0 0.2 0 0.5z"/><path class="i" d="m170.3 298.3l41.9-0.1 16.6-46.3h-2.3l-16.5 44.1-39.7 0.2v2z"/><path class="f" d="m151.8 304.1l1.6 145.1h4.3l-1.8-146.2-4.1 1.1z"/><path class="f" d="m241.5 302.7c-0.6 2.8 3.8 146.8 3.8 146.8h4l-3.2-146.8z"/><path class="f" d="m290.4 298.3l-178-0.1v7.4h14.7l-9.6 143.1 4.2 0.2 9.6-143.3h144.1l7 143.4h4.2l-7-143.4h10.8v-7.3z"/><path class="g" d="m190 443.7v-11l-20.6-0.2-0.2 16.1 1.2 0.1c5.7 0.4 29 1.5 32.8 0.4 4.2-1.2-13.2-5.4-13.2-5.4z"/><path class="j" d="m176.6 448.5q-0.1-0.6-0.3-1.2-0.2-0.7-0.6-1.2-0.3-0.6-0.7-1.1-0.4-0.5-1-0.9-0.5-0.4-1-0.7-0.6-0.3-1.2-0.5-0.6-0.2-1.3-0.3-0.6-0.1-1.3 0v5.7z"/><path class="j" d="m198.5 446.1c0-0.1 6.1 1.8 5.3 2.8-0.8 1-24.3 0.7-34.7-0.3v-0.4l27.5 0.5c0 0 0.7-2.6 1.9-2.7z"/><path class="f" d="m168.9 448.1h0.3l1 0.1 3.8 0.2c3.1 0.2 7.5 0.3 12.3 0.4 4.8 0 9.2 0 12.4-0.1l3.7-0.1 1-0.1h0.4q-0.1 0-0.1 0 0 0-0.1 0 0 0-0.1 0 0 0-0.1 0h-1-3.7c-3.2 0-7.6 0-12.4 0-4.8 0-9.2-0.1-12.3-0.2l-3.8-0.2h-1z"/><path class="f" d="m196.6 449q0.1-0.2 0.2-0.5 0-0.2 0.1-0.4 0.1-0.2 0.2-0.5 0.1-0.2 0.2-0.4 0.2-0.2 0.3-0.4 0.2-0.2 0.3-0.3 0.2-0.2 0.4-0.4 0.1-0.1 0.3-0.3-0.4 0.2-0.8 0.5-0.4 0.4-0.7 0.8-0.2 0.4-0.4 0.9-0.1 0.5-0.1 1z"/><path class="f" d="m190.6 445.9c0 0 0.3-0.4 0.6-0.8 0.3-0.5 0.5-0.9 0.5-0.9-0.1-0.1-0.4 0.3-0.7 0.7q-0.1 0.1-0.1 0.3-0.1 0.1-0.2 0.2 0 0.1-0.1 0.2 0 0.1 0 0.3z"/><path class="f" d="m188.9 445c0.1 0.1 0.4-0.2 0.8-0.5 0.3-0.3 0.6-0.6 0.5-0.6 0-0.1-0.4 0.1-0.7 0.4-0.4 0.3-0.6 0.6-0.6 0.7z"/><path class="f" d="m187.9 443q0.1 0 0.2 0.1 0.2 0 0.3 0 0.1 0.1 0.3 0.1 0.1 0 0.2-0.1 0.2 0.1 0.3 0.1 0.2 0 0.3 0 0.1-0.1 0.3-0.1 0.1 0 0.2-0.1-0.1 0-0.2 0-0.2-0.1-0.3-0.1-0.1 0-0.3 0-0.1 0-0.2 0-0.2 0-0.3 0-0.1 0-0.3 0-0.1 0-0.3 0-0.1 0.1-0.2 0.1z"/><path class="f" d="m187.5 441.6q0.3 0.2 0.6 0.3 0.3 0.1 0.6 0.1 0.3 0 0.7 0 0.3-0.1 0.6-0.2-0.3 0-0.6 0-0.3 0-0.7-0.1-0.3 0-0.6 0-0.3 0-0.6-0.1z"/><path class="f" d="m191.3 444.1q0.2 0 0.3 0 0.2 0 0.4 0 0.1 0 0.3 0 0.2 0 0.3 0 0.2 0 0.4-0.1 0.2 0 0.3 0 0.2-0.1 0.4-0.1 0.2-0.1 0.3-0.1 0.1 0 0.2-0.1 0.1 0 0.2-0.1 0.1 0 0.2-0.1 0.1 0 0.2 0 0.1-0.1 0.2-0.1 0-0.1 0-0.1 0.1-0.1 0.1-0.1 0.1-0.1 0.1-0.2 0 0 0-0.1 0-0.1 0-0.1-0.1-0.1-0.1-0.2-0.1 0-0.1-0.1-0.4-0.2-0.8-0.2-0.4-0.1-0.8 0-0.5 0.1-0.8 0.3-0.4 0.3-0.6 0.6-0.1 0.1-0.2 0.2 0 0.1-0.1 0.2 0 0.1-0.1 0.2 0 0.1-0.1 0.3 0 0.3 0 0.3 0.1-0.1 0.1-0.3 0.1-0.1 0.2-0.3 0.1-0.1 0.1-0.2 0.1-0.2 0.2-0.3 0.2-0.1 0.3-0.2 0.1-0.1 0.3-0.2 0.1-0.1 0.3-0.2 0.1-0.1 0.3-0.1 0.2-0.1 0.4-0.1 0.2 0 0.4 0 0.2 0 0.4 0.1 0.2 0 0.4 0.1c0.2 0.2 0.1 0.4-0.2 0.5q0 0.1-0.1 0.1-0.1 0.1-0.2 0.1-0.1 0.1-0.2 0.1-0.1 0-0.2 0.1-0.2 0-0.3 0.1-0.2 0-0.4 0.1-0.1 0-0.3 0-0.2 0.1-0.4 0.1c-0.8 0.1-1.3 0.1-1.3 0.2z"/><path class="f" d="m191.6 444.1q0.1-0.1 0.1-0.2 0.1-0.1 0.1-0.2 0-0.1 0-0.2 0-0.2 0-0.3 0-0.1 0-0.2-0.1-0.2-0.1-0.3-0.1-0.1-0.1-0.2-0.1-0.2-0.2-0.3 0-0.1-0.1-0.3-0.2-0.1-0.3-0.2-0.2-0.1-0.3-0.1-0.2-0.1-0.3-0.1-0.2 0.1-0.2 0.1-0.1 0.1-0.2 0.2 0 0-0.1 0.1 0 0.1 0 0.2 0.1 0.1 0.1 0.2 0 0.1 0 0.1 0 0.1 0.1 0.2 0 0.1 0.1 0.1 0 0.1 0.1 0.2 0.1 0.2 0.1 0.3 0.1 0.1 0.2 0.2 0.1 0 0.2 0.1 0 0.1 0.1 0.2 0.1 0.1 0.2 0.2 0.1 0 0.2 0.1 0.1 0 0.2 0.1c0.1 0-0.2-0.3-0.6-0.7q-0.1-0.1-0.2-0.2 0-0.1-0.1-0.2-0.1-0.1-0.1-0.2-0.1-0.1-0.1-0.2c-0.2-0.3-0.3-0.8 0-0.8 0.3-0.1 0.6 0.3 0.8 0.5q0.1 0.1 0.2 0.3 0 0.1 0.1 0.2 0 0.1 0 0.2 0.1 0.1 0.1 0.2 0 0.1 0 0.2 0 0.2 0 0.3 0 0.1 0 0.2 0 0.1 0 0.2z"/><path class="f" d="m169.3 442.5c0 0 0.6 0 1.6 0.1q0.4 0 0.9 0.2 0.4 0.1 0.8 0.3 0.4 0.1 0.8 0.4 0.4 0.2 0.8 0.5 0.3 0.3 0.6 0.6 0.3 0.4 0.6 0.7 0.2 0.4 0.4 0.8 0.2 0.4 0.4 0.9c0.3 0.9 0.3 1.5 0.3 1.4 0.1 0 0-0.1 0-0.4q0-0.1 0-0.2 0-0.2 0-0.3-0.1-0.2-0.1-0.3 0-0.1-0.1-0.3-0.2-0.9-0.8-1.7-0.5-0.8-1.2-1.4-0.8-0.6-1.6-0.9-0.9-0.4-1.9-0.5-0.1 0-0.2 0-0.2 0-0.3 0-0.2 0-0.3 0-0.2 0-0.3 0 0 0-0.1 0 0 0-0.1 0.1 0 0-0.1 0 0 0-0.1 0z"/><path class="f" d="m171.6 434q-0.1 1.1-0.2 2.1 0 1.1 0 2.1-0.1 1.1-0.1 2.1 0 1.1 0.1 2.2 0-0.6 0.1-1.1 0-0.5 0.1-1.1 0-0.5 0-1 0-0.5 0-1.1 0-0.5 0-1 0.1-0.6 0-1.1 0-0.5 0-1 0-0.6 0-1.1z"/><path class="f" d="m179.2 446.6q0.4 0 0.8 0.1 0.4 0.1 0.7 0.1 0.4 0.1 0.8 0.1 0.4 0 0.7 0 0.4 0 0.8 0 0.4 0 0.7 0 0.4-0.1 0.8-0.1 0.4-0.1 0.7-0.1c0-0.1-1.3 0-3 0-1.6 0-2.9-0.2-3-0.2z"/><path class="f" d="m175.2 446.5c0 0.1 0.1 0.3 0.2 0.6 0.2 0.3 0.3 0.6 0.3 0.6 0.1 0 0.1-0.3 0-0.7-0.2-0.4-0.4-0.6-0.5-0.5z"/><path class="f" d="m173.7 444.6c0 0 0.1 0.2 0.3 0.5 0.2 0.2 0.4 0.3 0.5 0.3 0-0.1-0.1-0.3-0.3-0.5-0.2-0.2-0.4-0.4-0.5-0.3z"/><path class="f" d="m171.5 443.7c0 0.1 0.3 0.1 0.6 0.2 0.3 0.1 0.5 0.3 0.6 0.2 0 0-0.1-0.3-0.5-0.4-0.4-0.2-0.7-0.1-0.7 0z"/><path class="f" d="m170 443.3c0 0 0.1 0.1 0.3 0.2 0.1 0.1 0.3 0.1 0.3 0 0-0.1-0.1-0.2-0.3-0.2-0.1-0.1-0.3-0.1-0.3 0z"/><path class="g" d="m230.5 432.6l-4.5-10-18.9 8.3 6.4 14.7 1.2-0.4c5.4-2 27-10.5 30-13.1 3.4-2.9-14.2 0.5-14.2 0.5z"/><path class="j" d="m220.4 442.5q-0.4-0.6-0.9-1-0.4-0.5-1-0.9-0.5-0.4-1.1-0.7-0.6-0.3-1.2-0.4-0.7-0.2-1.3-0.2-0.6-0.1-1.3 0-0.6 0.1-1.2 0.3-0.7 0.2-1.2 0.5l2.3 5.2z"/><path class="j" d="m239.3 431.2c-0.1 0 6.3-0.8 5.9 0.4-0.3 1.3-21.8 10.7-31.7 14l-0.1-0.4 25.2-10.8c0 0-0.4-2.6 0.6-3.2z"/><path class="f" d="m213.1 445.3l0.3-0.1 1-0.3 3.5-1.4c3-1.2 7-2.8 11.5-4.8 4.4-1.9 8.4-3.7 11.2-5.1l3.4-1.7 0.9-0.4q0 0 0.1-0.1 0 0 0 0 0.1 0 0.1-0.1 0.1 0 0.1 0l-0.3 0.1-1 0.4-3.4 1.6c-2.8 1.3-6.8 3.2-11.2 5.1-4.5 1.9-8.5 3.6-11.4 4.8l-3.5 1.5-0.9 0.4z"/><path class="f" d="m238.8 434.7q-0.1-0.2-0.1-0.5 0-0.2 0-0.5 0-0.2 0-0.4 0-0.3 0-0.5 0-0.3 0.1-0.5 0.1-0.2 0.1-0.5 0.1-0.2 0.2-0.4 0.1-0.2 0.2-0.5-0.2 0.2-0.3 0.4-0.2 0.2-0.3 0.5-0.1 0.2-0.2 0.4 0 0.3-0.1 0.5 0 0.3 0 0.5 0 0.3 0 0.5 0.1 0.3 0.2 0.5 0 0.3 0.2 0.5z"/><path class="f" d="m232 434.3c0.1 0 0.2-0.4 0.3-1 0.1-0.6 0.1-1 0-1-0.1 0-0.2 0.4-0.3 1q0 0.1 0 0.2-0.1 0.2-0.1 0.3 0 0.1 0.1 0.3 0 0.1 0 0.2z"/><path class="f" d="m230.1 434.2c0 0 0.2-0.3 0.5-0.8 0.2-0.4 0.3-0.8 0.2-0.8-0.1 0-0.3 0.3-0.5 0.7-0.2 0.5-0.3 0.8-0.2 0.9z"/><path class="f" d="m228.3 432.8q0.2 0 0.3 0 0.1-0.1 0.2-0.1 0.2 0 0.3-0.1 0.1 0 0.2-0.1c0.6-0.2 1-0.5 1-0.5-0.1-0.1-0.5 0-1 0.3-0.5 0.2-1 0.4-1 0.5z"/><path class="f" d="m227.4 431.7q0.2 0 0.4 0 0.1 0 0.3 0 0.1 0 0.3-0.1 0.1 0 0.3-0.1 0.1 0 0.3-0.1 0.1 0 0.3-0.1 0.1-0.1 0.2-0.2 0.1-0.1 0.3-0.2-0.2 0-0.3 0.1-0.2 0-0.3 0.1-0.2 0-0.3 0.1-0.2 0-0.3 0.1-0.1 0-0.3 0.1-0.1 0-0.3 0.1-0.1 0-0.3 0.1-0.1 0-0.3 0.1z"/><path class="f" d="m231.9 432.4q0.1-0.1 0.3-0.1 0.2-0.1 0.3-0.1 0.2-0.1 0.3-0.2 0.2-0.1 0.3-0.2 0.1-0.1 0.3-0.2 0.1-0.1 0.3-0.2 0.1-0.1 0.3-0.2 0.1-0.1 0.2-0.2 0.1-0.1 0.2-0.2 0.1 0 0.2-0.1 0-0.1 0.1-0.2 0.1-0.1 0.2-0.1 0-0.1 0-0.2 0.1 0 0.1-0.1 0 0 0-0.1 0-0.1 0-0.2 0 0-0.1-0.1 0-0.1 0-0.1-0.1-0.1-0.2-0.1 0 0-0.1 0-0.5-0.1-1.1 0.1-0.5 0.3-0.8 0.7-0.4 0.4-0.5 0.9-0.2 0.5-0.1 1.1 0 0 0 0.1 0 0 0 0.1 0 0 0.1 0 0 0.1 0 0.1 0-0.1 0-0.3 0-0.2 0-0.3 0-0.2 0-0.3 0.1-0.2 0.1-0.3 0-0.2 0.1-0.4 0.1-0.1 0.2-0.3 0.1-0.1 0.2-0.2 0.1-0.2 0.2-0.3 0.2-0.1 0.4-0.2 0.1-0.1 0.3-0.2 0.2-0.1 0.4-0.1 0.2 0 0.4 0c0.3 0 0.3 0.3 0.2 0.5q-0.1 0.1-0.2 0.2 0 0.1-0.1 0.1-0.1 0.1-0.2 0.2 0 0.1-0.1 0.1-0.1 0.1-0.3 0.3-0.1 0.1-0.2 0.2-0.2 0.1-0.3 0.2-0.2 0.1-0.3 0.2c-0.7 0.4-1.1 0.6-1.1 0.7z"/><path class="f" d="m232.2 432.3q0-0.1 0-0.2 0-0.2 0-0.3 0-0.1-0.1-0.2 0-0.1-0.1-0.2-0.1-0.1-0.2-0.2 0-0.1-0.1-0.2-0.1-0.1-0.2-0.2-0.1-0.1-0.2-0.1-0.2-0.2-0.3-0.2-0.2-0.1-0.3-0.1-0.2 0-0.4 0-0.2 0-0.3 0.1-0.1 0-0.1 0.1-0.1 0.1-0.1 0.2 0 0.1 0 0.2 0 0.1 0.1 0.2 0 0.1 0 0.1 0.1 0.1 0.2 0.2 0 0 0.1 0.1 0 0 0.1 0.1 0.1 0 0.2 0.1 0.1 0.1 0.2 0.1 0.1 0.1 0.3 0.1 0.1 0.1 0.2 0.1 0.1 0.1 0.2 0.1 0.1 0.1 0.2 0.1 0.2 0 0.3 0 0.1 0 0.2 0c0.1 0-0.3-0.1-0.8-0.3q-0.1-0.1-0.2-0.1-0.2-0.1-0.3-0.2-0.1 0-0.2-0.1-0.1-0.1-0.2-0.1c-0.2-0.2-0.5-0.6-0.3-0.8q0.2 0 0.3-0.1 0.1 0 0.2 0.1 0.2 0 0.3 0 0.1 0.1 0.2 0.2 0.1 0 0.2 0.1 0.1 0.1 0.2 0.1 0.1 0.1 0.2 0.2 0.1 0.1 0.1 0.2 0.1 0.1 0.1 0.2 0.1 0.1 0.1 0.2 0.1 0.1 0.1 0.2 0.1 0.1 0.1 0.2z"/><path class="f" d="m211.2 440c0 0 0.6-0.3 1.5-0.6q0.8-0.2 1.7-0.3 1 0 1.8 0.3 0.9 0.2 1.7 0.7 0.8 0.4 1.4 1.1c0.7 0.7 0.9 1.2 1 1.2q0-0.1-0.1-0.1 0 0 0-0.1 0 0 0-0.1-0.1 0-0.1-0.1-0.1-0.1-0.1-0.2-0.1-0.1-0.2-0.3-0.1-0.1-0.2-0.2-0.1-0.1-0.1-0.2-0.4-0.4-0.7-0.7-0.4-0.3-0.8-0.5-0.4-0.3-0.8-0.5-0.4-0.2-0.9-0.3-0.4-0.1-0.9-0.2-0.5 0-1 0-0.4 0-0.9 0.1-0.5 0.1-0.9 0.2-0.1 0.1-0.3 0.2-0.1 0-0.2 0.1-0.1 0-0.3 0.1-0.1 0.1-0.2 0.1c-0.3 0.2-0.4 0.3-0.4 0.3z"/><path class="f" d="m209.8 431.3q0.1 0.5 0.3 1 0.2 0.5 0.4 1 0.1 0.5 0.3 1 0.3 0.5 0.5 1 0.2 0.5 0.4 1 0.2 0.4 0.4 0.9 0.2 0.5 0.5 1 0.2 0.5 0.4 0.9-0.1-0.5-0.3-1-0.2-0.5-0.4-1-0.2-0.5-0.4-1-0.2-0.4-0.4-0.9-0.2-0.5-0.4-1-0.2-0.5-0.4-1-0.2-0.5-0.5-1-0.2-0.5-0.5-0.9z"/><path class="f" d="m221.9 439.6q0.4-0.1 0.8-0.2 0.3-0.1 0.7-0.2 0.3-0.1 0.7-0.2 0.3-0.2 0.7-0.3 0.3-0.2 0.7-0.3 0.3-0.2 0.7-0.4 0.3-0.1 0.6-0.3 0.3-0.2 0.6-0.5c0.1 0-1.2 0.6-2.7 1.2-1.5 0.7-2.8 1.1-2.8 1.2z"/><path class="f" d="m218.2 441.2c0 0.1 0.2 0.2 0.5 0.5 0.2 0.2 0.4 0.4 0.5 0.4 0-0.1 0-0.4-0.3-0.6-0.4-0.3-0.7-0.4-0.7-0.3z"/><path class="f" d="m216.1 440.1c0 0.1 0.1 0.2 0.4 0.3 0.3 0.1 0.5 0.2 0.6 0.1 0-0.1-0.2-0.2-0.5-0.3-0.3-0.1-0.5-0.2-0.5-0.1z"/><path class="f" d="m213.7 440.2c0 0 0.3-0.1 0.6-0.1 0.4 0 0.6 0 0.6 0 0.1 0-0.2-0.3-0.6-0.2-0.4 0-0.6 0.2-0.6 0.3z"/><path class="f" d="m212.1 440.4c0 0.1 0.2 0.1 0.4 0.1 0.1 0 0.3 0 0.3-0.1 0-0.1-0.2-0.1-0.3-0.1-0.2 0-0.4 0.1-0.4 0.1z"/><path class="g" d="m43.5 359.1l-14.9-111.2q-0.1-1 0.2-2 0.3-1 1.1-1.8 0.7-0.8 1.7-1.2 1-0.3 2-0.3l35.9 3q1.2 0.1 2.3 0.6 1.1 0.5 1.9 1.4 0.9 0.9 1.4 1.9 0.5 1.1 0.6 2.3l8.7 105.3z"/><g style="opacity:.2"><path  d="m43.5 359.1l-14.9-111.2q-0.1-1 0.2-2 0.3-1 1.1-1.8 0.7-0.8 1.7-1.2 1-0.3 2-0.3l35.9 3q1.2 0.1 2.3 0.6 1.1 0.5 1.9 1.4 0.9 0.9 1.4 1.9 0.5 1.1 0.6 2.3l8.7 105.3z"/></g><path class="f" d="m78.1 195.7c-0.3-4.2-1.4-8.4-2-12.6-0.6-4.2-0.7-8.6 1-12.5q0.7-1.6 1.8-3.1 1.1-1.4 2.4-2.7 1.3-1.2 2.9-2.1 1.5-0.9 3.2-1.6 1.7-0.6 3.5-1 1.7-0.4 3.5-0.6 1.8-0.2 3.6-0.2 1.8 0 3.6 0.2 0.3 0 0.6 0.1 0.3 0 0.7 0.1 0.3 0.1 0.6 0.2 0.3 0.1 0.6 0.2 0.3 0.1 0.5 0.3 0.3 0.2 0.5 0.5 0.2 0.3 0.3 0.6 0.1 0.3 0.1 0.6 0 0.3-0.1 0.6-0.1 0.3-0.3 0.6-0.2 0.2-0.5 0.3-0.3 0.1-0.7 0.1 0.7 0.1 1.4 0.2 0.7 0.1 1.3 0.2 0.7 0.2 1.4 0.4 0.6 0.2 1.3 0.4 0.3 0 0.5 0.2 0.3 0.1 0.5 0.2 0.2 0.2 0.4 0.4 0.2 0.2 0.3 0.4 0.2 0.3 0.2 0.6 0.1 0.3 0 0.6 0 0.3-0.1 0.6-0.1 0.3-0.3 0.6-0.2 0.2-0.4 0.5-0.2 0.2-0.4 0.4-0.3 0.2-0.5 0.4-0.2 0.2-0.5 0.4 0.3-0.1 0.6 0 0.4 0 0.6 0.2 0.3 0.2 0.5 0.5 0.2 0.3 0.2 0.6 0.1 0.3 0.1 0.6-0.1 0.4-0.1 0.7-0.1 0.3-0.3 0.6-0.1 0.3-0.3 0.6c-0.6 0.7-1.2 1.3-1.7 2-2.2 2.8-1.8 6.8-1.3 10.4"/><path class="k" d="m78.5 220.6l20.2-0.4c0.3-2.4 0.7-11.4 0.7-11.4 0 0 8.4-0.8 9-9.2 0.7-8.3 0.4-27.6 0.4-27.6-2.3-1.2-4.8-2.1-7.3-2.6-2.5-0.5-5.1-0.7-7.7-0.5-2.6 0.1-5.1 0.7-7.5 1.5-2.5 0.8-4.8 2-6.9 3.4l-1.3 0.9z"/><path class="f" d="m106 186.4c-0.3-0.3-0.5-0.8-0.3-1.3 0.2-0.4 0.7-0.7 1.2-0.7 0.5 0 0.9 0.3 1.1 0.7 0.2 0.5 0.1 1-0.3 1.3q-0.1 0.2-0.4 0.3-0.2 0.1-0.4 0.1-0.3 0-0.5-0.1-0.2-0.1-0.4-0.3z"/><path class="f" d="m108.1 184.4c-0.1 0.2-0.9-0.5-2-0.6-1.2-0.1-2 0.5-2.2 0.3-0.1-0.2 0.1-0.3 0.5-0.6q0.4-0.2 0.8-0.3 0.5-0.1 0.9-0.1 0.5 0 0.9 0.2 0.4 0.2 0.8 0.5c0.3 0.3 0.4 0.6 0.3 0.6z"/><path class="f" d="m94.8 184.6c0.4 0.3 0.6 0.8 0.5 1.3-0.1 0.5-0.5 0.8-1 0.9-0.5 0.1-1-0.1-1.2-0.5-0.3-0.5-0.3-1 0-1.4q0.1-0.2 0.3-0.3 0.2-0.2 0.5-0.2 0.2 0 0.5 0 0.2 0.1 0.4 0.2z"/><path class="f" d="m95.6 184.7c-0.2 0.1-1-0.6-2.1-0.7-1.2 0-2 0.5-2.2 0.4-0.1-0.2 0.1-0.4 0.5-0.6q0.4-0.3 0.8-0.4 0.5-0.1 0.9 0 0.5 0 0.9 0.2 0.4 0.1 0.8 0.4c0.3 0.3 0.4 0.6 0.4 0.7z"/><path class="f" d="m99.6 194.5q0.2-0.1 0.4-0.2 0.3 0 0.5-0.1 0.3 0 0.5 0 0.2 0 0.5 0c0.3 0 0.5-0.1 0.6-0.2q0-0.2 0-0.3-0.1-0.1-0.1-0.2 0-0.1 0-0.2-0.1-0.1-0.1-0.2-0.4-1.2-0.8-2.4c-1-3.4-1.8-6.2-1.6-6.3 0.2-0.1 1.2 2.7 2.3 6.1q0.3 1.2 0.7 2.4 0 0.1 0.1 0.3 0 0.2 0 0.3 0 0.2 0 0.3 0 0.2 0 0.4-0.1 0-0.1 0.1-0.1 0.1-0.2 0.2 0 0-0.1 0-0.1 0.1-0.2 0.1-0.1 0-0.1 0-0.1 0-0.2 0 0 0-0.1 0 0 0-0.1 0-0.2 0-0.5 0-0.2 0-0.5 0-0.2 0-0.4 0-0.3-0.1-0.5-0.1z"/><path class="d" d="m95.8 195.5c-1.2-0.8 3.2 2 5.5 2q-0.3 0.4-0.8 0.7-0.4 0.3-0.9 0.5-0.6 0.1-1.1 0.1-0.5-0.1-1-0.3c-2.5-1.1-1.7-3-1.7-3z"/><path class="l" d="m99.4 208.6q-1.4 0-2.9-0.3-1.4-0.3-2.7-0.8-1.4-0.4-2.7-1.1-1.3-0.7-2.4-1.5c-0.8-0.6 2.2 6.1 10.6 5.9z"/><path class="f" d="m77.8 181l0.4 10.8c0 0 3.8-1.1 4.1-1.2 0.2-0.1-0.1-13.3-0.1-13.3 0 0-0.5-5 2.7-6.2 3.4-1.2 4.9 1.3 9.7 2 16 2.7 14.9-2.2 14.9-2.2 0 0 2-2.1-2.1-4.5-4.1-2.3-14.3-3.1-19.9-1.2-11 3.8-11.7 7.6-11.7 10.9 0 4.7 2 4.9 2 4.9z"/><path class="k" d="m79.7 182.1c-0.2 0-6.2-0.8-5.7 6.3 0.6 7.1 7.6 4.2 7.6 4 0-0.2-1.9-10.3-1.9-10.3z"/><path class="l" d="m79.2 190c0 0-0.1 0.1-0.3 0.2q-0.1 0.1-0.2 0.1-0.1 0-0.3 0-0.1 0.1-0.2 0-0.1 0-0.2 0-0.4-0.2-0.7-0.5-0.3-0.2-0.5-0.6-0.2-0.3-0.4-0.7-0.1-0.4-0.1-0.8 0-0.3 0-0.5 0-0.2 0-0.4 0.1-0.3 0.1-0.5 0.1-0.2 0.1-0.4 0.1-0.2 0.1-0.4 0.1-0.1 0.2-0.2 0.2-0.2 0.3-0.3 0.1-0.1 0.3-0.1 0.1-0.1 0.2-0.1 0.1 0 0.2 0.1 0.1 0 0.2 0.1 0.1 0 0.2 0.1c0.1 0.2 0 0.4 0.1 0.4 0 0 0.1-0.1 0-0.4q0-0.1 0-0.2-0.1 0-0.1-0.1 0 0-0.1-0.1 0 0-0.1-0.1-0.1 0-0.2 0 0-0.1-0.1-0.1-0.1 0-0.2 0-0.1 0-0.2 0-0.2 0.1-0.4 0.2-0.2 0.1-0.4 0.3-0.1 0.1-0.2 0.3-0.1 0.2-0.2 0.4-0.1 0.3-0.2 0.5 0 0.3-0.1 0.5 0 0.3 0 0.5 0 0.3 0 0.5c0.2 1.5 1 2.7 2 3q0.2 0 0.3 0 0.2 0 0.3-0.1 0.2 0 0.3-0.1 0.1 0 0.3-0.1c0.2-0.2 0.2-0.3 0.2-0.4z"/><path class="k" d="m159.1 278c0 0 10-0.5 12 0.4 3.4 1.5 13.7 17.7 13.2 17.7-1.5 0-4.7 0-4.7 0l-16-6.1-3.8 1z"/><path class="f" d="m202.1 324.4c0 0 29.9 103.6 30 103.1 0-0.5-26.8 12.9-26.8 12.9l-18.2-74.9z"/><path class="i" d="m204.7 441.1l28.3-13.9-1.2-3.8-28.6 13.9 1.5 3.7z"/><path class="i" d="m200.9 402.9c-0.1 0-0.4-0.6-0.7-1.4-0.2-0.8-0.3-1.6-0.1-1.6 0.1-0.1 0.4 0.6 0.7 1.4 0.2 0.9 0.3 1.6 0.1 1.6z"/><path class="i" d="m202.8 409c-0.2 0-0.5-0.6-0.7-1.4-0.3-0.9-0.4-1.6-0.2-1.6 0.1-0.1 0.4 0.6 0.7 1.4 0.2 0.8 0.3 1.5 0.2 1.6z"/><path class="i" d="m204.7 415c-0.1 0.1-0.5-0.6-0.7-1.4-0.3-0.9-0.4-1.6-0.3-1.6 0.2-0.1 0.5 0.6 0.8 1.4 0.3 0.8 0.4 1.6 0.2 1.6z"/><path class="i" d="m206.7 421c-0.1 0.1-0.4-0.6-0.7-1.4-0.3-0.8-0.4-1.6-0.3-1.6 0.2 0 0.5 0.6 0.8 1.4 0.3 0.8 0.4 1.6 0.2 1.6z"/><path class="i" d="m208.8 427c-0.1 0-0.5-0.6-0.8-1.4-0.2-0.8-0.4-1.5-0.2-1.6 0.1 0 0.5 0.6 0.8 1.4 0.3 0.9 0.4 1.5 0.2 1.6z"/><path class="i" d="m211 432.9c-0.1 0-0.5-0.6-0.8-1.4-0.3-0.8-0.4-1.5-0.3-1.6 0.1 0 0.5 0.6 0.8 1.4 0.3 0.9 0.5 1.6 0.3 1.6z"/><path class="i" d="m209.4 435.4q-0.1-0.1-0.1-0.3-0.1-0.1-0.2-0.2-0.1-0.2-0.1-0.3-0.1-0.1-0.2-0.3c-0.3-0.7-0.8-1.7-1.4-3.1-1.1-2.6-2.4-6.3-3.8-10.4-1.4-4.1-2.6-7.8-3.4-10.6q-0.5-1.9-1-3.2 0-0.1-0.1-0.3 0-0.1 0-0.3-0.1-0.1-0.1-0.3 0-0.2-0.1-0.3 0.1 0.1 0.2 0.3 0.1 0.1 0.1 0.2 0.1 0.2 0.1 0.3 0.1 0.2 0.1 0.3c0.3 0.8 0.7 1.9 1.2 3.2l3.5 10.5c1.3 4.2 2.6 7.9 3.7 10.5l1.2 3.1q0.1 0.2 0.1 0.3 0.1 0.2 0.1 0.3 0.1 0.1 0.1 0.3 0.1 0.1 0.1 0.3z"/><path class="f" d="m62.5 317.2c0.2-5.5-2.9 30.1 24.5 31 27.4 1 83.3 0.6 83.3 0.6l-6.5 90.3h32.8l6.9-96.1c0 0 3.5-27.8-15.6-31.4-11.9-2.2-86-2.9-86-2.9z"/><path class="i" d="m163 439.3h34.6v-5.4l-34.6 0.1v5.3z"/><path class="i" d="m108.9 344q0.1 0 0.1 0 0 0 0.1 0 0 0 0.1 0 0 0 0.1 0l1-0.1 4-0.1 14.8-0.6 50.1-1.7h0.3v0.3c-0.4 3.7-0.8 7.6-1.1 11.5q-0.7 8.5-1.3 16.5c-0.4 5.3-1 10.4-1.5 15.3-1 9.7-2 18.5-2.7 25.9-0.8 7.4-1.5 13.3-1.9 17.5-0.2 2-0.4 3.6-0.6 4.7q0 0.8-0.1 1.3 0 0 0 0.1 0 0 0 0.1 0 0 0 0.1-0.1 0-0.1 0.1 0-0.1 0-0.1 0-0.1 0-0.1 0-0.1 0-0.1 0-0.1 0-0.1c0-0.4 0.1-0.8 0.1-1.3q0.2-1.7 0.5-4.7c0.4-4.2 1-10.2 1.7-17.5 0.7-7.4 1.6-16.2 2.6-26 0.5-4.8 1-10 1.4-15.3 0.5-5.3 0.9-10.8 1.3-16.4q0.5-6 1.2-11.6l0.2 0.3-50.1 1.6-14.8 0.4h-4-1q0 0.1-0.1 0 0 0-0.1 0 0 0-0.1 0 0 0-0.1 0z"/><path class="i" d="m112.1 340.1c0 0.1-0.7 0.3-1.6 0.3-0.9 0-1.6-0.1-1.6-0.2 0-0.2 0.7-0.3 1.6-0.4 0.8 0 1.6 0.1 1.6 0.3z"/><path class="i" d="m118.4 339.9c0 0.2-0.7 0.3-1.6 0.4-0.9 0-1.6-0.1-1.6-0.3 0-0.1 0.7-0.3 1.6-0.3 0.9 0 1.6 0.1 1.6 0.2z"/><path class="i" d="m124.7 339.8c0 0.2-0.7 0.3-1.6 0.3-0.8 0-1.5-0.1-1.5-0.2-0.1-0.2 0.7-0.3 1.5-0.3 0.9-0.1 1.6 0 1.6 0.2z"/><path class="i" d="m131.1 339.6c0 0.2-0.7 0.3-1.6 0.4-0.9 0-1.6-0.1-1.6-0.3 0-0.1 0.7-0.3 1.6-0.3 0.8 0 1.6 0.1 1.6 0.2z"/><path class="i" d="m137.4 339.5c0 0.1-0.7 0.3-1.6 0.3-0.9 0-1.6-0.1-1.6-0.2 0-0.2 0.7-0.3 1.6-0.3 0.9-0.1 1.6 0 1.6 0.2z"/><path class="i" d="m143.7 339.4c0 0.1-0.7 0.2-1.6 0.3-0.8 0-1.5-0.1-1.6-0.3 0-0.1 0.8-0.3 1.6-0.3 0.9 0 1.6 0.1 1.6 0.3z"/><path class="i" d="m150.1 339.2c0 0.1-0.7 0.3-1.6 0.3-0.9 0-1.6-0.1-1.6-0.2 0-0.2 0.7-0.3 1.6-0.3 0.8-0.1 1.5 0.1 1.6 0.2z"/><path class="i" d="m156.4 339.1c0 0.1-0.7 0.2-1.6 0.3-0.9 0-1.6-0.1-1.6-0.3 0-0.1 0.7-0.3 1.6-0.3 0.9 0 1.6 0.1 1.6 0.2z"/><path class="i" d="m162.7 338.9c0 0.1-0.7 0.3-1.6 0.3-0.9 0-1.6-0.1-1.6-0.2 0-0.2 0.7-0.3 1.6-0.3 0.9-0.1 1.6 0.1 1.6 0.2z"/><path class="i" d="m169 338.8c0 0.1-0.7 0.2-1.6 0.3-0.9 0-1.6-0.1-1.6-0.3 0-0.1 0.7-0.3 1.6-0.3 0.9 0 1.6 0.1 1.6 0.2z"/><path class="i" d="m175.4 338.6c0 0.1-0.7 0.3-1.6 0.3-0.9 0-1.6-0.1-1.6-0.2 0-0.2 0.7-0.3 1.6-0.3 0.9 0 1.6 0 1.6 0.2z"/><path class="i" d="m181.7 338.4c0 0.2-0.7 0.4-1.6 0.4-0.9 0-1.6-0.1-1.6-0.3 0-0.1 0.7-0.3 1.6-0.3 0.9 0 1.6 0.1 1.6 0.3z"/><path class="i" d="m181.7 344.2c-0.2 0-0.2-0.7-0.1-1.6 0.1-0.9 0.2-1.6 0.4-1.6 0.1 0 0.2 0.8 0.1 1.6-0.1 0.9-0.3 1.6-0.4 1.6z"/><path class="i" d="m181.1 350.5c-0.2 0-0.2-0.7-0.2-1.6 0.1-0.9 0.3-1.6 0.5-1.6 0.1 0 0.2 0.8 0.1 1.6-0.1 0.9-0.3 1.6-0.4 1.6z"/><path class="i" d="m180.4 356.8c-0.1 0-0.2-0.7-0.1-1.6 0.1-0.9 0.3-1.6 0.5-1.6 0.1 0 0.2 0.8 0.1 1.6-0.1 0.9-0.3 1.6-0.5 1.6z"/><path class="i" d="m179.8 363.1c-0.1 0-0.2-0.7-0.1-1.6 0.1-0.9 0.3-1.6 0.4-1.6 0.2 0 0.2 0.8 0.2 1.6-0.1 0.9-0.3 1.6-0.5 1.6z"/><path class="i" d="m179.2 369.4c-0.1 0-0.2-0.7-0.1-1.6 0.1-0.9 0.3-1.6 0.4-1.6 0.2 0.1 0.2 0.8 0.1 1.6 0 0.9-0.2 1.6-0.4 1.6z"/><path class="i" d="m178.6 375.7c-0.2 0-0.2-0.7-0.1-1.6 0.1-0.9 0.3-1.6 0.4-1.6 0.1 0.1 0.2 0.8 0.1 1.6-0.1 0.9-0.2 1.6-0.4 1.6z"/><path class="i" d="m178 382c-0.2 0-0.2-0.7-0.1-1.6 0.1-0.9 0.3-1.6 0.4-1.6 0.2 0.1 0.2 0.8 0.1 1.6-0.1 0.9-0.3 1.6-0.4 1.6z"/><path class="i" d="m177.4 388.3c-0.2 0-0.3-0.7-0.2-1.6 0.1-0.9 0.3-1.6 0.5-1.6 0.1 0.1 0.2 0.8 0.1 1.6-0.1 0.9-0.3 1.6-0.4 1.6z"/><path class="i" d="m176.7 394.6c-0.1 0-0.2-0.7-0.1-1.6 0.1-0.9 0.3-1.6 0.5-1.6 0.1 0.1 0.2 0.8 0.1 1.6-0.1 0.9-0.3 1.6-0.5 1.6z"/><path class="i" d="m176.1 400.9c-0.1 0-0.2-0.7-0.1-1.6 0.1-0.9 0.3-1.6 0.4-1.6 0.2 0.1 0.2 0.8 0.2 1.6-0.1 0.9-0.3 1.6-0.5 1.6z"/><path class="i" d="m175.5 407.2c-0.2 0-0.2-0.7-0.1-1.6 0.1-0.9 0.3-1.6 0.4-1.6 0.2 0.1 0.2 0.8 0.1 1.6-0.1 0.9-0.2 1.6-0.4 1.6z"/><path class="i" d="m174.9 413.5c-0.2 0-0.2-0.7-0.1-1.6 0.1-0.9 0.2-1.6 0.4-1.6 0.1 0.1 0.2 0.8 0.1 1.7-0.1 0.8-0.3 1.5-0.4 1.5z"/><path class="i" d="m174.3 419.8c-0.2 0-0.2-0.7-0.2-1.6 0.1-0.9 0.3-1.6 0.5-1.6 0.1 0.1 0.2 0.8 0.1 1.7-0.1 0.8-0.3 1.5-0.4 1.5z"/><path class="i" d="m173.7 426.1c-0.2 0-0.3-0.7-0.2-1.6 0.1-0.9 0.3-1.6 0.5-1.5 0.1 0 0.2 0.7 0.1 1.6-0.1 0.8-0.3 1.5-0.4 1.5z"/><path class="i" d="m173 432.4c-0.2 0-0.2-0.7-0.1-1.6 0.1-0.9 0.3-1.6 0.4-1.5 0.2 0 0.2 0.7 0.1 1.6 0 0.8-0.2 1.5-0.4 1.5z"/><path class="i" d="m172.7 435.8c-0.2-0.1-0.3-0.1-0.3-0.2 0.1 0 0.2-0.1 0.3 0 0.2 0 0.3 0 0.3 0.1 0 0-0.1 0.1-0.3 0z"/><path class="f" d="m174.8 344.6q-0.2 0.3-0.5 0.6-0.2 0.3-0.5 0.6-0.2 0.3-0.5 0.6-0.3 0.3-0.6 0.5-0.3 0.3-0.6 0.6-0.3 0.2-0.6 0.5-0.4 0.2-0.7 0.4-0.3 0.3-0.7 0.4 0.5-0.6 1-1.2 0.6-0.6 1.2-1.1 0.6-0.5 1.2-1 0.6-0.5 1.3-0.9z"/><path class="f" d="m177.1 345.8q-0.4 0.3-0.9 0.5-0.4 0.3-0.8 0.5-0.5 0.3-0.9 0.5-0.5 0.2-1 0.4-0.4 0.2-0.9 0.4-0.4 0.2-0.9 0.4-0.5 0.2-0.9 0.3-0.5 0.1-1 0.2 0.4-0.2 0.8-0.5 0.4-0.3 0.9-0.5 0.4-0.3 0.9-0.5 0.4-0.2 0.9-0.3 0.5-0.3 0.9-0.5 0.5-0.2 0.9-0.4 0.5-0.1 1-0.3 0.5-0.1 1-0.2z"/><path class="i" d="m110.3 274.1c0 0-3.4-35.9-9.3-51.6l1.2-0.9-1.8-6.2-22.3-2.7 0.4 4.9q-1.3 0.5-2.4 1.2-1.1 0.8-2.1 1.7-0.9 0.9-1.7 2-0.8 1.1-1.5 2.3c-8 16.9-4 36.7-8.2 73.4 0 0-5 17.2 0.1 22.5l48.6-11.3-2.3-11.1c21.2-0.4 56.1-4.3 56.1-4.3l-1-20c0 0-52.1 0.3-53.8 0.1z"/><path class="b" d="m100.3 215.4q0.3 0.5 0.5 0.9 0.3 0.5 0.5 1 0.2 0.5 0.3 1.1 0.2 0.5 0.4 1 0 0.2 0.1 0.4 0.1 0.2 0.1 0.4 0.1 0.2 0.1 0.5 0.1 0.2 0.1 0.4 0 0.1 0 0.2 0 0.1-0.1 0.2 0 0.1-0.1 0.2 0 0.1-0.1 0.2 0 0.1-0.1 0.2-0.1 0-0.2 0.1 0 0-0.1 0.1-0.1 0-0.2 0c-0.8 0.3-1.3 0.1-1.3 0 0 0 0.5-0.1 1.1-0.4q0.2 0 0.3-0.1 0.1-0.1 0.1-0.2 0.1-0.1 0.2-0.3 0-0.1 0-0.2-0.1-0.2-0.1-0.4-0.1-0.2-0.1-0.4-0.1-0.2-0.1-0.4-0.1-0.2-0.2-0.4-0.2-0.5-0.3-1-0.2-0.5-0.3-1-0.2-0.5-0.3-1.1-0.1-0.5-0.2-1z"/><path class="f" d="m105.7 242.1c0 0.2-9 0.3-20 0.3-11 0-20-0.1-20-0.3 0-0.1 9-0.3 20-0.3 11 0 20 0.2 20 0.3z"/><path class="f" d="m103.6 232c0 0.2-8 0.3-17.8 0.3-9.7 0-17.7-0.1-17.7-0.3 0-0.2 8-0.3 17.7-0.3 9.8 0 17.8 0.1 17.8 0.3z"/><path class="f" d="m100.6 223.1c0 0.2-6.5 0.3-14.6 0.3-8.1 0-14.7-0.1-14.7-0.3 0-0.1 6.6-0.3 14.7-0.3 8.1 0 14.6 0.2 14.6 0.3z"/><path class="f" d="m100.3 216.8q-1.4 0.1-2.8 0.2-1.4 0.1-2.8 0.1-1.4 0-2.8 0-1.4 0-2.8 0-1.4 0-2.8 0-1.4 0-2.8 0-1.4 0-2.8-0.1-1.4-0.1-2.8-0.2c0-0.1 5-0.2 11.2-0.2 6.2 0 11.2 0.1 11.2 0.2z"/><path class="f" d="m107.1 251.8c0 0.2-9.5 0.3-21.2 0.3-11.7 0-21.1-0.1-21.1-0.3 0-0.1 9.4-0.2 21.1-0.2 11.7 0 21.2 0.1 21.2 0.2z"/><path class="f" d="m108.8 261.6c0 0.2-9.9 0.3-22 0.3-12.2 0-22-0.1-22-0.3 0-0.1 9.8-0.3 22-0.3 12.1 0 22 0.2 22 0.3z"/><path class="f" d="m109.9 270.6c0 0.2-10.1 0.3-22.6 0.3-12.4 0-22.5-0.1-22.5-0.3 0-0.1 10.1-0.3 22.5-0.3 12.5 0 22.6 0.2 22.6 0.3z"/><path class="f" d="m159.1 280.5c0 0.1-21.3 0.2-47.6 0.2-26.3 0-47.6-0.1-47.6-0.2 0-0.2 21.3-0.3 47.6-0.3 26.3 0 47.6 0.1 47.6 0.3z"/><path class="f" d="m159.4 288.3c0 0.2-21.4 0.3-47.9 0.3-26.5 0-47.9-0.1-47.9-0.3 0-0.1 21.4-0.2 47.9-0.2 26.5 0 47.9 0.1 47.9 0.2z"/><path class="f" d="m108.2 298.1c0 0.1-10.2 0.2-22.9 0.2-12.6 0-22.9-0.1-22.9-0.2 0-0.2 10.3-0.3 22.9-0.3 12.7 0 22.9 0.1 22.9 0.3z"/><path class="f" d="m110.6 307.1c0 0.1-11.2 0.3-24.9 0.3-13.8 0-24.9-0.2-24.9-0.3 0-0.2 11.1-0.3 24.9-0.3 13.7 0 24.9 0.1 24.9 0.3z"/><path class="f" d="m68.2 309.5c-0.2 0-0.3-17.5-0.3-39.1 0-21.6 0.1-39 0.3-39 0.1 0 0.2 17.4 0.2 39 0 21.6-0.1 39.1-0.2 39.1z"/><path class="f" d="m80.2 308.5c-0.2 0-0.3-21.4-0.3-47.7 0-26.4 0.1-47.8 0.3-47.8 0.2 0 0.3 21.4 0.3 47.8 0 26.3-0.2 47.7-0.3 47.7z"/><path class="f" d="m93.4 307.1c-0.1 0-0.2-20.6-0.2-46 0-25.4 0.1-46 0.2-46 0.2 0 0.3 20.6 0.3 46 0 25.4-0.1 46-0.3 46z"/><path class="f" d="m104.6 309.4c-0.2 0-0.3-16.1-0.3-36.1 0-19.9 0.1-36.1 0.3-36.1 0.2 0 0.3 16.2 0.3 36.1 0 20-0.1 36.1-0.3 36.1z"/><path class="f" d="m116.4 274.1q0.1 0.4 0.1 0.8 0 0.5 0 0.9 0 0.4 0 0.9 0 0.4 0 0.9c0 2.1 0 5.1-0.1 8.4-0.1 3.3-0.2 6.3-0.3 8.5q0 0.4 0 0.9 0 0.4-0.1 0.9 0 0.4 0 0.8-0.1 0.5-0.2 0.9 0-0.4 0-0.9-0.1-0.4-0.1-0.9 0-0.4 0-0.8 0-0.5 0-0.9c0-2.2 0-5.2 0.1-8.5 0.2-3.3 0.2-6.3 0.3-8.5q0-0.4 0-0.8 0.1-0.5 0.1-0.9 0-0.4 0.1-0.9 0-0.4 0.1-0.9z"/><path class="f" d="m129 274.5q0 0.4 0.1 0.8 0 0.4 0 0.8 0 0.4 0 0.8 0 0.5 0 0.9c0 2 0 4.8-0.1 7.9-0.1 3.1-0.2 5.9-0.3 7.9q0 0.4 0 0.8 0 0.5 0 0.9-0.1 0.4-0.1 0.8-0.1 0.4-0.1 0.8-0.1-0.4-0.1-0.8 0-0.4-0.1-0.8 0-0.4 0-0.9 0-0.4 0.1-0.8c-0.1-2-0.1-4.8 0.1-7.9 0.1-3.1 0.1-5.9 0.2-7.9q0-0.5 0-0.9 0.1-0.4 0.1-0.8 0-0.4 0.1-0.8 0-0.4 0.1-0.8z"/><path class="f" d="m141.5 274.3q0.1 0.3 0.1 0.7 0 0.4 0.1 0.8 0 0.4 0 0.8 0 0.4-0.1 0.8c0 2 0 4.7-0.1 7.7-0.1 3-0.1 5.8-0.2 7.7q0 0.4 0 0.8-0.1 0.4-0.1 0.8 0 0.4-0.1 0.8 0 0.4-0.1 0.8 0-0.4-0.1-0.8 0-0.4 0-0.8 0-0.4 0-0.8 0-0.4 0-0.8c0-2 0-4.7 0.1-7.7 0.1-3 0.2-5.7 0.3-7.7q0-0.4 0-0.8 0-0.4 0-0.8 0.1-0.4 0.1-0.8 0.1-0.4 0.1-0.8z"/><path class="f" d="m154.1 273.9q0 0.4 0.1 0.8 0 0.4 0 0.7 0 0.4 0 0.8 0 0.4 0 0.8c0 1.9 0 4.5-0.1 7.4-0.1 3-0.1 5.6-0.2 7.5q0 0.4-0.1 0.8 0 0.4 0 0.8 0 0.3-0.1 0.7 0 0.4-0.1 0.8-0.1-0.4-0.1-0.8 0-0.4 0-0.8-0.1-0.3-0.1-0.7 0-0.4 0.1-0.8c0-1.9 0-4.6 0.1-7.5 0.1-2.9 0.1-5.5 0.2-7.4q0-0.4 0-0.8 0.1-0.4 0.1-0.8 0-0.4 0.1-0.7 0-0.4 0.1-0.8z"/><path class="f" d="m105.9 278.6q0.3-0.9 0.8-1.6 0.5-0.8 1.1-1.4 0.6-0.7 1.3-1.3 0.7-0.5 1.5-0.9-0.3 0.3-0.6 0.6-0.3 0.4-0.6 0.7-0.3 0.3-0.6 0.6-0.3 0.3-0.6 0.6-0.3 0.4-0.5 0.7-0.3 0.4-0.6 0.7-0.3 0.3-0.6 0.6-0.3 0.4-0.6 0.7z"/><path class="f" d="m108.8 278.8q-0.2-0.7-0.1-1.5 0-0.8 0.3-1.5 0.3-0.7 0.7-1.3 0.5-0.7 1.1-1.1c0.1 0.1-0.7 1.1-1.3 2.6-0.5 1.5-0.5 2.8-0.7 2.8z"/><path class="f" d="m160 293.9q-0.2-1.2-0.4-2.4-0.2-1.2-0.3-2.4-0.1-1.2-0.3-2.4-0.1-1.2-0.1-2.4-0.2-1.2-0.3-2.4-0.1-1.2-0.2-2.4-0.1-1.2-0.1-2.4 0-1.2 0-2.4 0.2 1.2 0.4 2.4 0.1 1.2 0.3 2.4 0.1 1.2 0.2 2.4 0.1 1.2 0.2 2.4 0.2 1.2 0.3 2.4 0.1 1.2 0.1 2.4 0.1 1.2 0.2 2.4 0 1.2 0 2.4z"/><path class="f" d="m160.6 278.5c0 0-0.3 0.2-0.3 0.7q0 0.1 0 0.2 0 0.1 0.1 0.2 0 0.1 0 0.2 0.1 0.1 0.2 0.2 0 0 0.1 0.1 0.2 0 0.3 0 0.1 0.1 0.2 0 0.1 0 0.2 0 0.1-0.1 0.2-0.1 0.1-0.1 0.2-0.2 0-0.1 0.1-0.2 0-0.1 0-0.2 0-0.1 0-0.2-0.1-0.1-0.1-0.2-0.1-0.1-0.1-0.2-0.1 0-0.2-0.1c-0.4-0.3-0.7-0.2-0.7-0.3-0.1-0.1 0.3-0.4 1 0q0.1 0.1 0.2 0.2 0.1 0.1 0.2 0.2 0.1 0.2 0.1 0.3 0.1 0.2 0.1 0.3 0 0.2 0 0.4-0.1 0.2-0.2 0.3-0.1 0.2-0.2 0.3-0.2 0.2-0.4 0.2-0.1 0.1-0.3 0.1-0.2 0.1-0.4 0-0.2 0-0.4-0.1-0.2-0.1-0.3-0.2-0.1-0.1-0.2-0.3 0-0.1-0.1-0.3 0-0.1 0-0.3 0-0.1 0-0.3c0.2-0.7 0.7-0.8 0.7-0.7z"/><path class="f" d="m110.2 274h0.3l0.7 0.1q1 0.1 2.9 0.1c2.5 0.1 6.2 0.2 10.9 0.1 9.4 0 22.9-0.4 39-1h0.2v0.3c0.3 6.2 0.7 13 1 20.2v0.2h-0.2c-2.6 0.5-5.1 0.7-7.8 0.9l-8.1 0.7q-8.2 0.7-16.9 1.3l-21.1 1.4c-6.1-0.4-12.1-2.6-16.2-6.6q-0.8-0.7-1.5-1.5-0.7-0.8-1.3-1.7-0.6-0.9-1.1-1.8-0.5-1-0.9-1.9-0.3-1-0.7-1.9-0.3-0.9-0.6-1.9-0.3-0.9-0.5-1.9-0.3-1-0.5-1.9c-2.5-10-4-19.2-5.3-26.7q-0.9-5.7-1.5-10.2-0.2-0.9-0.3-1.9-0.2-1-0.3-1.9-0.1-1-0.2-1.9 0-1-0.1-2 0-0.6 0-1.2 0.1-0.6 0.2-1.2 0.1-0.6 0.3-1.2 0.2-0.5 0.5-1.1 0.1-0.2 0.2-0.3 0.1-0.2 0.2-0.4 0.2-0.2 0.3-0.3 0.1-0.2 0.3-0.3-0.1 0.2-0.3 0.3-0.1 0.2-0.2 0.4-0.1 0.1-0.2 0.3-0.1 0.2-0.2 0.4-0.3 0.5-0.5 1.1-0.2 0.6-0.3 1.1-0.1 0.6-0.1 1.2 0 0.6 0 1.2 0.1 1 0.2 2 0.1 0.9 0.2 1.9 0.1 0.9 0.3 1.9 0.1 0.9 0.3 1.9 0.7 4.5 1.6 10.1c1.3 7.6 2.9 16.6 5.4 26.6q0.2 1 0.4 2 0.3 0.9 0.6 1.9 0.3 0.9 0.6 1.8 0.4 1 0.7 1.9 0.4 0.9 0.9 1.8 0.5 1 1.1 1.8 0.6 0.9 1.2 1.6 0.7 0.8 1.4 1.5c4 4 9.9 6.1 16 6.5l21.1-1.4 16.9-1.3 8-0.7c2.7-0.3 5.3-0.5 7.8-0.9l-0.2 0.2c-0.4-7.1-0.7-13.9-1-20.1l0.2 0.2c-16.1 0.6-29.6 0.9-39 0.8-4.7 0-8.4-0.1-10.9-0.2q-1.9-0.1-2.9-0.3h-0.7q-0.1-0.1-0.1-0.1 0 0-0.1 0 0 0 0 0-0.1 0-0.1 0z"/><path class="f" d="m110.2 274q-0.1-0.2-0.1-0.4-0.1-0.2-0.2-0.4-0.1-0.2-0.1-0.4-0.1-0.2-0.1-0.4c-0.3-1-0.7-2.5-1.2-4.3-1-3.7-2.1-8.8-3.4-14.4-1.3-5.7-2.5-10.8-3.3-14.5l-1-4.3q-0.1-0.2-0.1-0.4-0.1-0.2-0.1-0.4-0.1-0.2-0.1-0.4 0-0.3-0.1-0.5 0.1 0.2 0.2 0.4 0.1 0.2 0.1 0.4 0.1 0.2 0.2 0.4 0 0.2 0.1 0.4c0.3 1 0.7 2.5 1.2 4.3 1 3.7 2.2 8.8 3.5 14.5 1.2 5.6 2.3 10.6 3.2 14.4q0.6 2.7 1 4.4 0.1 0.2 0.1 0.4 0 0.2 0.1 0.4 0 0.2 0.1 0.4 0 0.2 0 0.4z"/><path class="f" d="m100.4 215.8q0 0.1 0 0.3 0 0.1 0 0.3 0 0.1 0 0.2-0.1 0.2-0.1 0.3-0.1 1.1-0.5 3 0 0.3-0.1 0.5 0 0.3-0.1 0.6 0 0.2-0.1 0.5 0 0.2-0.1 0.5 0 0.1-0.1 0.3-0.1 0.2-0.2 0.3-0.1 0.1-0.3 0.2-0.1 0.1-0.3 0.2-0.2 0-0.3 0-0.2 0.1-0.4 0.1-0.1 0-0.3-0.1-0.2 0-0.3 0c-1.7-0.4-3.5-0.8-5.4-1.3-3.7-1-7.1-2.1-9.5-2.9l-2.9-0.9q-0.1 0-0.2 0-0.1-0.1-0.3-0.1-0.1-0.1-0.2-0.1-0.1-0.1-0.3-0.2 0.2 0 0.3 0.1 0.2 0 0.3 0 0.1 0 0.3 0 0.1 0.1 0.2 0.1c0.7 0.2 1.7 0.4 3 0.8 2.4 0.6 5.8 1.6 9.5 2.7 1.9 0.5 3.7 1 5.3 1.3q0.1 0 0.3 0.1 0.1 0 0.3 0 0.1 0 0.2 0 0.2 0 0.3 0 0.1-0.1 0.2-0.1 0.1-0.1 0.2-0.2 0.1-0.1 0.1-0.2 0.1-0.1 0.1-0.2c0.2-0.6 0.3-1.4 0.5-2 0.2-1.3 0.5-2.3 0.6-2.9q0-0.2 0.1-0.3 0-0.2 0-0.3 0.1-0.2 0.1-0.3 0.1-0.2 0.1-0.3z"/><path class="f" d="m82.9 354.3l7 94.8 2.9-0.7-1.1-92.2-8.8-2z"/><path class="f" d="m53.3 357.6l-21.2 91.4h3.8l30.4-91.5h-13z"/><path class="f" d="m109.4 357.6l29 91.4h3.1l-23-91.5h-9.1z"/><path class="f" d="m113.3 363.7l-64.9 42.4v2.3l66.7-44.7h-1.8z"/><path class="f" d="m58.3 363.7l70.3 47.3v-3.6l-68.3-45.8-2 2.1z"/><path class="g" d="m43.6 359.1l83.6-1.5q1.1 0 2.2-0.5 1-0.5 1.7-1.3 0.8-0.9 1.1-2 0.4-1.1 0.2-2.2-0.1-1-0.6-1.9-0.4-0.8-1.2-1.5-0.7-0.6-1.6-1-1-0.3-2-0.3l-84.8 1.3z"/><g style="opacity:.2"><path  d="m43.6 359.1l83.6-1.5q1.1 0 2.2-0.5 1-0.5 1.7-1.3 0.8-0.9 1.1-2 0.4-1.1 0.2-2.2-0.1-1-0.6-1.9-0.4-0.8-1.2-1.5-0.7-0.6-1.6-1-1-0.3-2-0.3l-84.8 1.3z"/></g><path class="g" d="m35.1 294.5l8.4 64.6 65.9-1.5-0.1-39.3c0-1.6-0.3-3.1-0.9-4.5-0.6-1.4-1.5-2.7-2.7-3.7-1.1-1.1-2.4-1.9-3.9-2.4-1.4-0.5-3-0.7-4.5-0.5l-50.3 4.5-6.6-68.5-6.7-0.6q-1.1 0-2 0.3-1 0.4-1.8 1.2-0.7 0.8-1 1.8-0.3 1-0.2 2z"/></svg>